<?xml version="1.0" encoding="utf-8"?>
<!-- Generator: Adobe Illustrator 23.0.4, SVG Export Plug-In . SVG Version: 6.00 Build 0)  -->
<svg version="1.1" id="_x30_3_-_Solid" xmlns="http://www.w3.org/2000/svg" xmlns:xlink="http://www.w3.org/1999/xlink" x="0px"
	 y="0px" viewBox="0 0 3400 2500" style="enable-background:new 0 0 3400 2500;" xml:space="preserve">
<style type="text/css">
	.st0{fill:#CB2027;}
	.st1{fill:#3B8740;}
</style>
<g id="English_4_">
	<path d="M378.07,2015.73l20.6-31.8c0.86-1.33,1.53-2.3,2.01-2.9c0.47-0.6,0.98-1.09,1.53-1.47c0.54-0.38,1.17-0.58,1.87-0.59
		c0.71-0.01,1.7,0.18,2.98,0.59l1.58-2.44l-19.28-12.49l-1.58,2.44c1.09,1.23,1.73,2.23,1.91,3c0.18,0.77,0.12,1.57-0.19,2.4
		c-0.31,0.83-1.07,2.18-2.28,4.05l-7.99,12.34l-16.69-10.81l7.99-12.34c1.22-1.9,2.18-3.14,2.85-3.74c0.67-0.6,1.38-0.97,2.15-1.1
		c0.77-0.13,1.92,0.04,3.47,0.52l1.58-2.44l-19.39-12.56l-1.58,2.44c0.78,0.85,1.33,1.6,1.66,2.25c0.33,0.65,0.47,1.31,0.4,1.97
		c-0.06,0.66-0.31,1.41-0.77,2.23s-1.05,1.82-1.8,2.98l-20.62,31.84c-0.77,1.18-1.44,2.14-2.02,2.87c-0.57,0.73-1.16,1.26-1.74,1.6
		c-0.58,0.34-1.24,0.48-1.95,0.41c-0.71-0.06-1.61-0.26-2.67-0.61l-1.58,2.44l19.39,12.56l1.58-2.44c-0.61-0.64-1.08-1.23-1.42-1.78
		c-0.34-0.55-0.55-1.08-0.63-1.59c-0.08-0.5-0.03-1.04,0.13-1.6c0.15-0.56,0.45-1.23,0.88-2c0.42-0.77,0.92-1.59,1.48-2.45
		l9.6-14.81l16.7,10.82l-9.6,14.81c-1.36,2.09-2.34,3.42-2.95,3.99c-0.61,0.56-1.25,0.9-1.91,0.99c-0.65,0.1-1.82-0.13-3.49-0.69
		l-1.58,2.44l19.28,12.49l1.58-2.44c-1.1-1.17-1.74-2.14-1.93-2.93c-0.19-0.79-0.14-1.58,0.15-2.39
		C376.08,2018.97,376.84,2017.62,378.07,2015.73z"/>
	<path d="M427.42,2002.45c-1.25-0.57-2.55-1.06-3.88-1.47s-2.87-0.78-4.64-1.12c-1.76-0.33-3.6-0.58-5.49-0.73
		c-1.9-0.15-4.32-0.24-7.28-0.26l-3.31,7.29l7.57,3.44c1.31-1.95,2.6-3.36,3.85-4.22c1.26-0.86,2.44-1.3,3.53-1.32
		c1.09-0.02,2.25,0.25,3.47,0.8c1.23,0.56,2.16,1.31,2.8,2.26c0.63,0.95,0.92,2.22,0.87,3.83c-0.06,1.6-0.64,3.65-1.77,6.13
		l-1.73,3.81c-8.12-2.98-14.63-4.22-19.51-3.72c-4.88,0.5-8.22,2.72-10.01,6.65c-0.88,1.95-1.23,3.87-1.04,5.76
		c0.19,1.89,0.94,3.64,2.25,5.25c1.32,1.61,3.12,2.94,5.42,3.98c2.32,1.05,4.74,1.57,7.24,1.55c2.5-0.02,5.34-0.6,8.5-1.74
		l0.51,0.47l-2.74,5.09l14.9,6.77l1.2-2.64c-0.95-0.75-1.58-1.3-1.89-1.66c-0.31-0.35-0.54-0.72-0.67-1.13
		c-0.14-0.4-0.19-0.87-0.15-1.42c0.03-0.55,0.24-1.32,0.59-2.32c0.35-1,0.93-2.38,1.73-4.14l7.1-15.63
		c1.54-3.39,2.26-6.27,2.18-8.63c-0.09-2.36-0.91-4.41-2.46-6.14C433.04,2005.52,430.65,2003.92,427.42,2002.45z M416.65,2031.49
		c-0.56,1.23-1.41,2.24-2.55,3.05c-1.13,0.8-2.4,1.28-3.79,1.44c-1.4,0.16-2.71-0.04-3.93-0.6c-1.61-0.73-2.66-1.73-3.18-3.02
		c-0.51-1.28-0.4-2.75,0.36-4.4c1.26-2.78,3.21-4.44,5.86-4.98c2.64-0.54,6.06,0.08,10.25,1.85L416.65,2031.49z"/>
	<path d="M509.87,2032.82c-1.29-1.05-3.05-1.92-5.29-2.62c-2.27-0.71-4.61-0.86-7.03-0.45c-2.41,0.41-5.45,1.49-9.1,3.24
		c-0.07-1.84-0.42-3.41-1.06-4.73c-0.63-1.32-1.55-2.46-2.76-3.42c-1.21-0.96-2.85-1.77-4.92-2.41c-2.13-0.66-4.37-0.82-6.72-0.48
		c-2.34,0.34-5.17,1.3-8.46,2.89l-0.47-0.29l2.52-5.85l-5.29-1.65l-11.62-3.26l-0.89,2.86c1.26,0.7,2.1,1.33,2.53,1.88
		c0.43,0.55,0.68,1.17,0.76,1.85c0.08,0.69,0,1.53-0.24,2.55c-0.24,1.02-0.68,2.56-1.33,4.63l-5.4,17.26
		c-0.83,2.66-1.5,4.47-1.99,5.42c-0.5,0.95-1.1,1.64-1.8,2.07c-0.7,0.43-1.78,0.61-3.24,0.56l-0.87,2.77l20.12,6.29l0.86-2.77
		c-1.16-0.7-1.9-1.43-2.22-2.19c-0.31-0.76-0.38-1.69-0.21-2.79s0.67-2.96,1.5-5.59l5.08-16.26c0.41-1.32,1.18-2.43,2.31-3.34
		c1.13-0.91,2.36-1.5,3.69-1.8c1.34-0.29,2.53-0.27,3.56,0.05c0.78,0.24,1.4,0.55,1.86,0.9c0.46,0.36,0.82,0.78,1.09,1.26
		c0.26,0.48,0.45,1.06,0.56,1.74c0.11,0.68,0.13,1.44,0.05,2.28c-0.08,0.84-0.28,1.9-0.61,3.2c-0.33,1.29-0.78,2.87-1.36,4.71
		l-3.52,11.26c-0.84,2.69-1.5,4.52-1.99,5.49c-0.49,0.97-1.07,1.67-1.74,2.11c-0.67,0.43-1.7,0.61-3.09,0.51l-0.87,2.77l20,6.25
		l0.86-2.77c-0.95-0.61-1.6-1.19-1.96-1.75c-0.37-0.56-0.56-1.18-0.59-1.86c-0.03-0.69,0.07-1.54,0.32-2.57
		c0.24-1.03,0.66-2.5,1.26-4.4l4.28-13.69c0.51-1.65,0.94-2.83,1.26-3.52c0.33-0.7,0.72-1.3,1.17-1.8c0.45-0.5,0.97-0.93,1.57-1.26
		c0.6-0.33,1.29-0.64,2.06-0.9c0.77-0.26,1.5-0.41,2.19-0.45c0.68-0.03,1.39,0.07,2.12,0.3c1.06,0.33,1.86,0.8,2.39,1.4
		s0.9,1.42,1.1,2.46c0.19,1.05,0.13,2.39-0.19,4.02c-0.33,1.64-0.88,3.72-1.67,6.23l-3.52,11.26c-0.83,2.66-1.5,4.48-2,5.46
		c-0.51,0.98-1.09,1.69-1.75,2.13c-0.65,0.44-1.66,0.62-3.02,0.53l-0.87,2.77l20.25,6.33l0.87-2.77c-0.7-0.43-1.27-0.87-1.71-1.32
		s-0.75-0.92-0.92-1.42s-0.24-1.1-0.2-1.79s0.2-1.59,0.49-2.68c0.29-1.09,0.63-2.25,1.02-3.49l4.79-15.33
		c0.81-2.57,1.28-4.86,1.43-6.84c0.15-1.98-0.07-3.74-0.63-5.27C512.08,2035.16,511.15,2033.87,509.87,2032.82z"/>
	<path d="M561.98,2075.57l10.31-49.1l-5.38-1.13l-12.06-1.9l-0.61,2.89c1.37,0.59,2.3,1.13,2.76,1.61c0.47,0.49,0.77,1.1,0.9,1.83
		c0.13,0.73,0.1,1.75-0.08,3.04c-0.18,1.3-0.6,3.48-1.25,6.55l-0.82,3.92c-1.57-0.81-2.94-1.42-4.13-1.84
		c-1.19-0.41-2.41-0.75-3.67-1.02c-4.4-0.92-8.33-0.85-11.81,0.22c-3.48,1.07-6.36,3.11-8.64,6.12c-2.28,3.02-3.94,6.96-4.96,11.84
		c-1.52,7.21-1.35,12.88,0.49,17.01c1.84,4.14,5.38,6.75,10.6,7.85c2.1,0.44,4.4,0.33,6.93-0.32c2.52-0.65,5.03-1.81,7.54-3.48
		l0.63,0.18l-1.69,6.12l5.21,1.09l11.8,2.07l0.61-2.88c-1.29-0.57-2.18-1.11-2.67-1.62c-0.49-0.51-0.81-1.09-0.94-1.75
		c-0.13-0.66-0.13-1.5,0.01-2.52C561.23,2079.35,561.53,2077.75,561.98,2075.57z M552.9,2056.93l-3.01,14.34
		c-0.35,1.67-1.07,3.05-2.18,4.15c-1.1,1.1-2.32,1.84-3.67,2.2c-1.35,0.36-2.64,0.41-3.88,0.15c-2.62-0.55-4.24-2.35-4.89-5.39
		c-0.65-3.04-0.38-7.39,0.81-13.05c0.69-3.3,1.61-6.09,2.77-8.37c1.15-2.28,2.5-3.92,4.04-4.93c1.54-1.01,3.21-1.33,4.99-0.95
		c2.44,0.51,4.07,1.74,4.9,3.68C553.6,2050.71,553.64,2053.43,552.9,2056.93z"/>
	<path d="M611.61,2091.93c-0.24-0.35-0.42-0.79-0.53-1.33c-0.12-0.54-0.14-1.33-0.07-2.39s0.25-2.55,0.54-4.46l2.54-16.97
		c0.56-3.68,0.47-6.65-0.26-8.9c-0.74-2.25-2.08-3.99-4.05-5.24c-1.96-1.24-4.7-2.13-8.21-2.65c-1.36-0.2-2.74-0.32-4.13-0.35
		c-1.38-0.03-2.98,0.04-4.77,0.2c-1.79,0.16-3.62,0.43-5.48,0.8c-1.86,0.37-4.22,0.96-7.07,1.75l-1.19,7.92l8.23,1.23
		c0.72-2.24,1.57-3.94,2.55-5.11c0.97-1.18,1.98-1.92,3.03-2.24c1.04-0.32,2.23-0.38,3.56-0.18c1.34,0.2,2.44,0.67,3.31,1.41
		c0.87,0.74,1.5,1.89,1.89,3.44c0.39,1.56,0.38,3.68-0.02,6.38l-0.62,4.14c-8.63-0.64-15.22-0.05-19.78,1.78
		c-4.56,1.82-7.16,4.87-7.79,9.13c-0.32,2.12-0.13,4.06,0.57,5.83c0.7,1.77,1.9,3.24,3.61,4.43c1.7,1.19,3.81,1.97,6.3,2.34
		c2.53,0.38,4.99,0.22,7.4-0.49c2.41-0.71,4.97-2.04,7.7-4.01l0.63,0.32l-1.25,5.64l16.19,2.43l0.43-2.87
		c-1.11-0.46-1.87-0.82-2.26-1.07C612.17,2092.58,611.86,2092.28,611.61,2091.93z M599.16,2080.87c-0.2,1.34-0.74,2.55-1.61,3.63
		c-0.87,1.09-1.96,1.9-3.26,2.43c-1.29,0.53-2.61,0.7-3.95,0.5c-1.74-0.26-3.03-0.94-3.88-2.03c-0.85-1.09-1.13-2.53-0.86-4.33
		c0.45-3.02,1.87-5.15,4.27-6.39c2.39-1.24,5.85-1.58,10.37-1.03L599.16,2080.87z"/>
	<path d="M667.34,2097.51c-0.26-0.46-0.45-1.03-0.56-1.72c-0.11-0.69-0.13-1.6-0.06-2.72c0.07-1.13,0.17-2.33,0.29-3.62l1.6-16.03
		c0.25-2.51,0.26-4.73,0.02-6.68c-0.23-1.94-0.77-3.61-1.62-5.03c-0.85-1.41-2.02-2.54-3.53-3.38c-1.5-0.84-3.46-1.38-5.85-1.62
		c-1.66-0.17-3.27-0.06-4.83,0.34c-1.56,0.39-3.07,0.97-4.54,1.76c-1.46,0.78-3.18,1.89-5.15,3.31l-0.51-0.18l1.28-6.24l-5.52-0.55
		l-12.03-0.85l-0.3,2.98c1.37,0.43,2.32,0.87,2.85,1.32c0.53,0.45,0.9,1.01,1.12,1.66c0.22,0.66,0.31,1.51,0.28,2.55
		c-0.03,1.04-0.15,2.64-0.37,4.8l-1.8,18c-0.28,2.77-0.56,4.68-0.86,5.71c-0.3,1.03-0.74,1.83-1.34,2.39
		c-0.61,0.56-1.62,0.96-3.06,1.2l-0.29,2.89l21.15,2.11l0.29-2.89c-1.34-0.46-2.25-1.03-2.73-1.71c-0.48-0.68-0.75-1.57-0.82-2.67
		c-0.06-1.1,0.04-3.03,0.31-5.81l1.68-16.86c0.13-1.37,0.67-2.62,1.61-3.75c0.93-1.13,2.04-1.98,3.31-2.55
		c1.26-0.57,2.45-0.8,3.56-0.69c0.81,0.08,1.48,0.24,1.98,0.46c0.51,0.23,0.95,0.55,1.32,0.95c0.38,0.41,0.7,0.91,0.98,1.51
		c0.28,0.61,0.47,1.34,0.57,2.2c0.1,0.87,0.14,1.97,0.09,3.31c-0.04,1.34-0.17,3.04-0.38,5.11l-1.16,11.69
		c-0.28,2.78-0.56,4.68-0.86,5.73c-0.29,1.05-0.74,1.86-1.32,2.44c-0.59,0.57-1.57,0.96-2.94,1.14l-0.29,2.89l21.24,2.12l0.29-2.89
		c-0.77-0.28-1.41-0.6-1.94-0.95C668,2098.37,667.6,2097.96,667.34,2097.51z"/>
	<path d="M751,2059.66c0.09-2.46-0.34-4.61-1.29-6.43c-0.96-1.83-2.33-3.26-4.11-4.3c-1.98-1.16-4.34-2.01-7.08-2.56
		c-2.07-0.4-4.75-0.66-8.03-0.79l-28.81-1.1l-0.11,2.9c1.1,0.34,1.96,0.7,2.58,1.09c0.61,0.39,1.06,0.89,1.35,1.49
		s0.45,1.37,0.49,2.31c0.03,0.94,0.03,2.1-0.03,3.48l-1.45,37.91c-0.06,1.41-0.15,2.57-0.26,3.49c-0.13,0.92-0.35,1.67-0.68,2.26
		c-0.33,0.59-0.82,1.04-1.46,1.35c-0.65,0.31-1.52,0.59-2.61,0.85l-0.11,2.9l27.09,1.04c4.2,0.16,7.66-0.03,10.4-0.57
		c2.73-0.54,5.14-1.47,7.19-2.78c2.06-1.32,3.63-3.04,4.69-5.17c1.06-2.13,1.66-4.66,1.77-7.59c0.13-3.43-0.83-6.41-2.89-8.94
		s-5.12-4.52-9.17-5.97l0.01-0.4C746.57,2071.11,750.74,2066.29,751,2059.66z M735.16,2096.07c-1.06,1.68-2.5,2.83-4.33,3.45
		c-1.83,0.62-4.14,0.88-6.92,0.77c-2.25-0.09-4.25-0.21-5.98-0.36l0.9-23.31l6.11,0.23c2.2,0.08,4.02,0.37,5.48,0.85
		c1.45,0.48,2.68,1.2,3.7,2.17c1.02,0.96,1.77,2.21,2.23,3.74c0.47,1.53,0.67,3.35,0.58,5.46
		C736.81,2092.06,736.22,2094.4,735.16,2096.07z M735.76,2067.2c-0.93,1.54-2.23,2.7-3.94,3.48c-1.7,0.79-4.02,1.12-6.96,1.01
		l-5.84-0.22l0.8-20.93c1.94-0.07,3.94-0.07,5.99,0.01c2.58,0.1,4.72,0.49,6.43,1.17c1.7,0.68,3,1.75,3.88,3.21
		c0.88,1.46,1.28,3.41,1.19,5.84C737.2,2063.52,736.68,2065.67,735.76,2067.2z"/>
	<path d="M777.11,2102.08c-0.26-0.32-0.47-0.68-0.63-1.06c-0.16-0.38-0.28-0.82-0.36-1.3s-0.15-1.18-0.18-2.07s-0.05-2.16-0.03-3.81
		l0.26-31.29l-5.5-0.05l-12.1,0.25l-0.03,3c0.99,0.21,1.81,0.46,2.44,0.74c0.63,0.29,1.12,0.69,1.49,1.22
		c0.36,0.53,0.61,1.24,0.73,2.12c0.12,0.88,0.18,2.04,0.17,3.48l-0.17,20.47c-0.02,2.79-0.13,4.71-0.33,5.76s-0.57,1.89-1.12,2.5
		s-1.54,1.1-2.99,1.47l-0.02,2.91l21.47,0.18l0.03-2.91c-0.82-0.21-1.48-0.45-1.98-0.72C777.75,2102.7,777.38,2102.4,777.11,2102.08
		z"/>
	
		<rect x="764.5" y="2044.65" transform="matrix(8.366701e-03 -1 1 8.366701e-03 -1287.1534 2803.3831)" width="10.78" height="12.06"/>
	<path d="M832.57,2102.3c-0.56-0.28-1-0.63-1.32-1.05c-0.31-0.42-0.56-0.97-0.75-1.64s-0.31-1.57-0.38-2.7
		c-0.06-1.13-0.1-2.34-0.13-3.63l-0.26-16.1c-0.04-2.52-0.29-4.73-0.75-6.63c-0.46-1.9-1.19-3.5-2.19-4.8c-1-1.3-2.3-2.29-3.9-2.95
		c-1.59-0.66-3.59-0.97-6-0.94c-1.67,0.03-3.26,0.33-4.76,0.89c-1.5,0.57-2.94,1.33-4.3,2.27c-1.36,0.95-2.94,2.24-4.73,3.89
		l-0.53-0.12l0.55-6.35l-5.55,0.09l-12.05,0.55l0.06,2.99c1.41,0.27,2.41,0.6,2.99,0.98c0.58,0.39,1.01,0.89,1.3,1.52
		s0.48,1.46,0.57,2.5s0.15,2.64,0.19,4.81l0.3,18.09c0.05,2.79-0.01,4.71-0.19,5.77c-0.17,1.06-0.53,1.9-1.06,2.53
		c-0.54,0.63-1.5,1.14-2.9,1.54l0.05,2.91l21.25-0.35l-0.05-2.9c-1.38-0.3-2.35-0.76-2.9-1.38c-0.56-0.62-0.93-1.47-1.12-2.55
		s-0.31-3.02-0.36-5.81l-0.28-16.94c-0.03-1.38,0.36-2.69,1.16-3.92c0.8-1.23,1.8-2.2,2.99-2.91c1.19-0.71,2.34-1.07,3.46-1.09
		c0.82-0.01,1.5,0.06,2.03,0.23c0.53,0.17,1,0.43,1.42,0.79c0.42,0.36,0.8,0.82,1.14,1.39c0.35,0.57,0.63,1.27,0.83,2.12
		c0.21,0.85,0.36,1.94,0.47,3.27s0.19,3.04,0.22,5.12l0.2,11.75c0.04,2.79-0.02,4.72-0.19,5.79c-0.17,1.07-0.51,1.93-1.04,2.57
		c-0.51,0.64-1.45,1.13-2.79,1.48l0.05,2.9l21.34-0.35l-0.05-2.91C833.81,2102.82,833.13,2102.58,832.57,2102.3z"/>
	<path d="M911.57,2096.62c-1.29-1.26-2.63-3.19-4.01-5.78l-3.12-5.82c-1.28-2.33-2.68-4.24-4.19-5.73c-1.51-1.48-3.38-2.63-5.6-3.44
		l-0.03-0.44c2.8-1.37,5.02-2.78,6.66-4.24c1.63-1.46,2.89-3.25,3.79-5.35s1.25-4.6,1.09-7.47c-0.13-2.2-0.52-4.11-1.19-5.73
		c-0.67-1.62-1.57-3.03-2.69-4.21c-1.13-1.18-2.48-2.14-4.04-2.87c-1.88-0.89-4.04-1.51-6.48-1.85c-2.45-0.34-5.4-0.41-8.85-0.22
		l-25.62,1.49l0.17,2.9c1.13,0.23,2.02,0.51,2.67,0.83c0.65,0.33,1.15,0.78,1.49,1.35c0.35,0.57,0.58,1.32,0.71,2.25
		c0.13,0.94,0.23,2.09,0.31,3.47l2.21,37.87c0.08,1.41,0.1,2.57,0.07,3.5c-0.03,0.93-0.19,1.7-0.46,2.32
		c-0.27,0.62-0.72,1.11-1.33,1.49c-0.61,0.37-1.45,0.74-2.51,1.09l0.17,2.9l23.07-1.34l-0.17-2.9c-1.61-0.32-2.71-0.72-3.33-1.22
		c-0.62-0.49-1.05-1.17-1.31-2.04c-0.26-0.87-0.45-2.4-0.58-4.6l-0.82-14.15l2.55-0.15c1.61-0.09,2.82,0.01,3.61,0.32
		c0.8,0.31,1.59,0.91,2.38,1.8c0.79,0.9,1.75,2.43,2.91,4.59l3.86,7.31c2.41,4.51,4.53,7.88,6.37,10.12l16.92-0.98l-0.17-2.9
		C914.36,2098.61,912.87,2097.88,911.57,2096.62z M892.51,2065.09c-0.25,1.54-0.79,2.9-1.61,4.08c-0.83,1.18-1.99,2.13-3.47,2.85
		c-1.49,0.72-3.4,1.14-5.75,1.28l-4.35,0.25l-1.42-24.43c0.79-0.1,2.44-0.23,4.96-0.38c3.69-0.22,6.53,0.62,8.52,2.5
		c1.99,1.89,3.1,4.82,3.33,8.8C892.83,2061.86,892.75,2063.54,892.51,2065.09z"/>
	<path d="M958.59,2094.4c-0.44-0.15-0.81-0.37-1.13-0.65c-0.32-0.29-0.59-0.67-0.83-1.17c-0.23-0.49-0.44-1.27-0.61-2.31
		c-0.18-1.05-0.35-2.53-0.51-4.46l-1.45-17.1c-0.31-3.71-1.08-6.58-2.31-8.59c-1.23-2.01-2.94-3.4-5.14-4.16
		c-2.2-0.75-5.07-0.98-8.61-0.69c-1.37,0.11-2.74,0.32-4.1,0.61c-1.36,0.29-2.89,0.72-4.59,1.29c-1.7,0.57-3.42,1.25-5.15,2.05
		c-1.73,0.79-3.89,1.9-6.48,3.33l0.67,7.98l8.29-0.7c0.18-2.34,0.61-4.2,1.29-5.56c0.68-1.37,1.49-2.33,2.43-2.88
		c0.94-0.55,2.08-0.88,3.43-0.99c1.34-0.11,2.53,0.09,3.54,0.61c1.02,0.52,1.89,1.49,2.63,2.92c0.74,1.42,1.22,3.5,1.45,6.21
		l0.35,4.17c-8.54,1.37-14.82,3.47-18.84,6.29c-4.02,2.83-5.84,6.39-5.48,10.69c0.18,2.13,0.81,3.98,1.9,5.54
		c1.09,1.56,2.6,2.72,4.54,3.48c1.93,0.77,4.15,1.04,6.67,0.83c2.54-0.22,4.91-0.95,7.08-2.19c2.18-1.25,4.37-3.13,6.57-5.68
		l0.67,0.16l0.09,5.78l16.32-1.37l-0.24-2.89C959.85,2094.73,959.04,2094.55,958.59,2094.4z M942.06,2089.77
		c-0.6,1.26-1.47,2.29-2.61,3.11c-1.13,0.82-2.38,1.28-3.72,1.4c-1.75,0.15-3.17-0.21-4.24-1.08c-1.07-0.87-1.68-2.21-1.84-4.02
		c-0.26-3.04,0.64-5.44,2.68-7.21c2.05-1.76,5.33-2.89,9.85-3.39l0.61,7.28C942.91,2087.21,942.66,2088.51,942.06,2089.77z"/>
	<path d="M997.78,2075.22c-1.07-1.52-2.54-2.82-4.39-3.88c-1.85-1.06-4.2-2.01-7.07-2.87c-3.14-0.94-5.27-1.73-6.39-2.36
		c-1.13-0.63-1.94-1.32-2.43-2.07c-0.49-0.74-0.79-1.67-0.91-2.78c-0.17-1.58,0.28-2.86,1.32-3.85c1.04-0.99,2.53-1.59,4.46-1.79
		c1.34-0.14,2.51-0.07,3.52,0.23c1,0.3,1.96,0.91,2.87,1.85c0.91,0.94,1.8,2.31,2.66,4.1l5.78-0.61l-1.06-10.2
		c-3.3-0.24-5.98-0.35-8.04-0.31c-2.06,0.04-4.15,0.17-6.28,0.39c-3.62,0.38-6.78,1.22-9.49,2.54c-2.71,1.32-4.72,3.02-6.04,5.1
		c-1.32,2.09-1.84,4.44-1.56,7.07c0.17,1.6,0.63,3.03,1.37,4.28c0.75,1.25,1.71,2.35,2.87,3.3c1.16,0.96,2.49,1.78,3.99,2.48
		c1.5,0.7,3.1,1.32,4.77,1.85c2.99,0.96,5.12,1.76,6.38,2.41c1.27,0.65,2.19,1.37,2.8,2.16c0.6,0.79,0.96,1.79,1.09,2.98
		c0.19,1.9-0.22,3.4-1.23,4.51c-1.02,1.11-2.62,1.78-4.82,2.01c-2.54,0.26-4.63-0.18-6.29-1.36c-1.66-1.17-2.98-3.04-3.95-5.63
		l-5.87,0.61l1.09,10.46c6.04,0.75,11.47,0.88,16.28,0.38c2.65-0.28,5.05-0.8,7.2-1.57c2.14-0.77,3.95-1.79,5.41-3.07
		c1.46-1.27,2.54-2.81,3.24-4.61c0.7-1.8,0.93-3.88,0.67-6.25C999.51,2078.59,998.86,2076.74,997.78,2075.22z"/>
	<path d="M1052.59,2083.67c-0.58-0.22-1.06-0.52-1.42-0.91c-0.35-0.38-0.67-0.9-0.93-1.55c-0.26-0.65-0.48-1.53-0.66-2.64
		c-0.19-1.11-0.35-2.31-0.51-3.59l-1.99-15.94c-0.45-3.52-1.2-6.34-2.28-8.45c-1.08-2.11-2.57-3.65-4.46-4.61
		c-1.89-0.96-4.44-1.24-7.64-0.84c-2.18,0.27-4.26,1.03-6.22,2.26c-1.96,1.24-4.11,3.2-6.47,5.89l-0.18-0.02l-3.11-24.93l-5.46,0.68
		l-12.02,2.12l0.35,2.88c1.25,0.08,2.18,0.23,2.76,0.45c0.59,0.22,1.06,0.56,1.41,1c0.35,0.44,0.65,1.06,0.9,1.84
		c0.24,0.78,0.46,1.76,0.65,2.94c0.19,1.17,0.44,3.01,0.75,5.51l4.26,34.06c0.23,1.86,0.38,3.3,0.45,4.31
		c0.07,1.01,0.03,1.81-0.1,2.41c-0.13,0.59-0.31,1.09-0.54,1.49c-0.24,0.4-0.58,0.77-1.04,1.11c-0.47,0.34-1.12,0.66-1.96,0.98
		l0.35,2.88l21.4-2.67l-0.36-2.88c-0.84-0.1-1.52-0.25-2.05-0.46c-0.53-0.2-0.94-0.44-1.25-0.73c-0.3-0.29-0.56-0.61-0.77-0.97
		s-0.38-0.77-0.53-1.24s-0.3-1.14-0.45-2.03s-0.33-2.14-0.54-3.77l-2.12-16.94c-0.17-1.34,0.08-2.65,0.73-3.93s1.54-2.33,2.66-3.17
		c1.12-0.83,2.24-1.32,3.35-1.46c1.16-0.15,2.13-0.05,2.89,0.3c0.77,0.35,1.43,0.94,2,1.77c0.56,0.83,1.04,2.05,1.43,3.64
		c0.4,1.59,0.77,3.84,1.13,6.75l1.43,11.4c0.34,2.77,0.49,4.7,0.43,5.8c-0.06,1.1-0.3,1.99-0.73,2.66
		c-0.43,0.68-1.32,1.26-2.64,1.75l0.36,2.88l21.18-2.64l-0.36-2.88C1053.89,2084.06,1053.19,2083.89,1052.59,2083.67z"/>
	<rect x="1057.99" y="2023.94" transform="matrix(0.9901 -0.14 0.14 0.9901 -273.6671 168.9775)" width="12.06" height="10.78"/>
	<path d="M1080.05,2079.8c-0.53-0.19-0.95-0.43-1.26-0.71c-0.31-0.28-0.56-0.6-0.78-0.96c-0.21-0.35-0.4-0.77-0.55-1.23
		c-0.15-0.47-0.31-1.14-0.49-2.02c-0.17-0.88-0.37-2.13-0.6-3.76l-4.38-30.98l-5.45,0.77l-11.93,2.05l0.42,2.96
		c1.02,0.07,1.85,0.19,2.52,0.38c0.66,0.19,1.21,0.51,1.65,0.99c0.44,0.47,0.79,1.13,1.04,1.99c0.26,0.85,0.48,1.99,0.68,3.41
		l2.87,20.27c0.39,2.76,0.56,4.68,0.53,5.75c-0.04,1.07-0.29,1.95-0.74,2.64c-0.45,0.69-1.36,1.32-2.73,1.9l0.4,2.87l21.26-3.01
		l-0.4-2.88C1081.27,2080.14,1080.58,2079.99,1080.05,2079.8z"/>
	<path d="M1132.41,2071.36c-0.64-0.3-1.14-0.73-1.5-1.3c-0.36-0.57-0.65-1.35-0.88-2.36c-0.24-1-0.52-2.61-0.87-4.81l-7.8-49.56
		l-5.43,0.86l-11.95,2.5l0.46,2.91c1.5,0.06,2.55,0.24,3.16,0.53c0.61,0.29,1.11,0.76,1.49,1.39c0.38,0.64,0.72,1.6,1.01,2.87
		c0.29,1.28,0.67,3.47,1.16,6.57l0.63,3.96c-1.75-0.2-3.26-0.28-4.52-0.25c-1.26,0.03-2.53,0.15-3.8,0.35
		c-4.43,0.7-8.09,2.16-10.96,4.4c-2.87,2.23-4.84,5.17-5.9,8.79c-1.06,3.63-1.2,7.9-0.43,12.83c1.15,7.27,3.31,12.52,6.51,15.73
		c3.19,3.21,7.42,4.4,12.71,3.57c2.12-0.33,4.23-1.25,6.36-2.76c2.12-1.51,4.06-3.48,5.82-5.93l0.65-0.06l0.6,6.32l5.26-0.83
		l11.76-2.25l-0.46-2.91C1134.07,2071.85,1133.05,2071.66,1132.41,2071.36z M1115.77,2067.83c-0.63,1.42-1.52,2.54-2.65,3.36
		c-1.13,0.82-2.32,1.32-3.57,1.52c-2.64,0.42-4.8-0.68-6.49-3.3c-1.69-2.62-2.98-6.78-3.88-12.49c-0.52-3.33-0.65-6.27-0.38-8.81
		c0.27-2.54,0.95-4.55,2.03-6.04c1.09-1.49,2.53-2.38,4.33-2.67c2.46-0.39,4.43,0.18,5.88,1.7c1.46,1.52,2.47,4.05,3.03,7.59
		l2.28,14.48C1116.6,2064.86,1116.41,2066.41,1115.77,2067.83z"/>
	<path d="M1210.89,2057.09c-0.8-0.43-1.5-1.06-2.1-1.9c-0.6-0.83-1.42-2.26-2.45-4.31l-23.25-45.82l-11.56,2.14l-9.14,51.42
		c-0.37,2.19-0.79,3.89-1.25,5.11c-0.47,1.22-1.04,2.22-1.73,3c-0.7,0.79-1.56,1.34-2.61,1.65l0.53,2.86l18.48-3.42l-0.53-2.86
		c-3.04,0.35-4.82-0.88-5.34-3.71c-0.22-1.21-0.31-2.38-0.24-3.51c0.06-1.13,0.18-2.31,0.37-3.54l0.67-4.38l18.48-3.42l1.96,4.03
		c0.77,1.59,1.36,2.91,1.76,3.97c0.4,1.06,0.69,2.04,0.86,2.93c0.23,1.21,0.04,2.22-0.56,3.01c-0.6,0.8-1.64,1.42-3.1,1.87
		l0.53,2.86l23.89-4.42l-0.53-2.86C1212.73,2057.76,1211.69,2057.53,1210.89,2057.09z M1171.45,2044.46l4.15-25.97l11.43,23.08
		L1171.45,2044.46z"/>
	<path d="M1235.49,2051.84c-0.65-0.51-1.17-1.27-1.55-2.27c-0.38-1-0.84-2.87-1.39-5.6l-9.87-49.33l-5.39,1.08l-11.83,3l0.56,2.85
		c1.26-0.01,2.18,0.07,2.79,0.25c0.61,0.18,1.11,0.47,1.5,0.89c0.4,0.41,0.74,1.01,1.03,1.77c0.29,0.77,0.57,1.73,0.84,2.88
		c0.28,1.16,0.66,2.97,1.16,5.45l6.74,33.66c0.37,1.84,0.62,3.26,0.77,4.27c0.14,1.01,0.17,1.81,0.08,2.41
		c-0.09,0.6-0.24,1.11-0.44,1.52s-0.51,0.81-0.95,1.18c-0.43,0.37-1.06,0.74-1.89,1.12l0.57,2.85l21.15-4.23l-0.57-2.85
		C1237.25,2052.64,1236.15,2052.35,1235.49,2051.84z"/>
	<path d="M1327.8,2031.84c-0.65-0.41-1.18-1.1-1.57-2.08c-0.4-0.98-0.8-2.34-1.19-4.09l-8.32-37.15c-0.49-2.15-0.71-3.67-0.69-4.56
		c0.03-0.89,0.26-1.65,0.69-2.27c0.43-0.62,1.36-1.32,2.78-2.09l-0.63-2.83l-20.14,4.51l-4.98,38.14l-19.8-32.59l-21.34,4.78
		l0.63,2.84c1.7,0.1,2.89,0.34,3.55,0.74c0.66,0.39,1.17,0.97,1.54,1.73c0.37,0.76,0.79,2.23,1.28,4.4l8.33,37.15
		c0.31,1.37,0.52,2.51,0.65,3.42c0.13,0.9,0.1,1.68-0.08,2.32c-0.19,0.64-0.55,1.2-1.09,1.69c-0.54,0.48-1.3,0.98-2.3,1.51
		l0.63,2.84l16.23-3.64l-0.63-2.84c-1.57-0.04-2.72-0.26-3.44-0.67c-0.72-0.41-1.28-1.01-1.66-1.79c-0.39-0.78-0.82-2.24-1.29-4.36
		l-4.43-19.75c-1.45-6.44-2.84-11.99-4.19-16.65l0.78-0.17c0.97,1.82,2.05,3.64,3.21,5.46l19.91,32.12l7.56-1.69l4.56-33.59
		c0.42-3.07,0.71-5.2,0.85-6.39c0.14-1.19,0.25-2.39,0.34-3.61l0.9-0.2c0.21,1.34,0.63,3.59,1.25,6.76s1.19,5.91,1.71,8.23
		l4.72,21.04c0.43,1.95,0.68,3.36,0.74,4.23c0.06,0.87,0,1.55-0.18,2.02c-0.18,0.48-0.48,0.9-0.91,1.26
		c-0.43,0.37-1.23,0.87-2.41,1.49l0.63,2.84l22.03-4.94l-0.63-2.84C1329.64,2032.49,1328.45,2032.26,1327.8,2031.84z"/>
	<path d="M1377.15,2020.57c-0.46-0.08-0.87-0.24-1.22-0.47c-0.36-0.23-0.69-0.57-0.99-1.03c-0.31-0.45-0.63-1.18-0.97-2.19
		c-0.33-1.01-0.73-2.45-1.19-4.33l-4.07-16.68c-0.88-3.62-2.09-6.33-3.62-8.13c-1.52-1.8-3.43-2.91-5.72-3.32
		c-2.29-0.41-5.16-0.19-8.61,0.65c-1.34,0.33-2.66,0.74-3.96,1.24c-1.29,0.5-2.74,1.16-4.34,1.99c-1.59,0.83-3.18,1.77-4.77,2.82
		c-1.59,1.05-3.55,2.48-5.89,4.29l1.9,7.78l8.08-1.97c-0.17-2.34-0.03-4.24,0.42-5.7c0.46-1.45,1.11-2.53,1.96-3.22
		s1.92-1.19,3.23-1.51c1.32-0.32,2.51-0.3,3.6,0.05c1.08,0.35,2.09,1.18,3.05,2.47c0.95,1.29,1.75,3.27,2.39,5.91l0.99,4.06
		c-8.23,2.67-14.11,5.72-17.64,9.13c-3.53,3.41-4.79,7.22-3.76,11.4c0.51,2.08,1.42,3.81,2.73,5.18c1.32,1.37,2.98,2.28,5.02,2.74
		c2.03,0.46,4.27,0.39,6.72-0.21c2.48-0.61,4.7-1.69,6.66-3.26c1.96-1.56,3.83-3.77,5.61-6.62l0.7,0.06l0.98,5.7l15.91-3.88
		l-0.69-2.82C1378.44,2020.71,1377.61,2020.66,1377.15,2020.57z M1360.1,2018.55c-0.4,1.34-1.09,2.49-2.09,3.48
		c-0.99,0.98-2.15,1.64-3.47,1.96c-1.7,0.42-3.16,0.28-4.36-0.41c-1.2-0.69-2.01-1.92-2.44-3.69c-0.72-2.96-0.21-5.47,1.54-7.53
		c1.75-2.06,4.82-3.68,9.21-4.87l1.73,7.1C1360.53,2015.89,1360.5,2017.22,1360.1,2018.55z"/>
	<path d="M1431.94,2006.26c-0.67-0.24-1.5-0.71-2.5-1.42c-1.01-0.71-2.63-2.06-4.88-4.05l-15.21-13.42l4.68-7.35
		c2.21-3.49,3.9-5.83,5.04-7.04c1.14-1.21,2.24-2.04,3.31-2.49l-0.71-2.73l-21.3,5.53l0.71,2.72c2.56-0.3,4.09,0.53,4.61,2.49
		c0.16,0.63,0.22,1.3,0.16,2.03c-0.06,0.73-0.29,1.62-0.71,2.69c-0.42,1.06-1.13,2.34-2.1,3.82c-0.98,1.48-1.72,2.52-2.21,3.12
		c-0.5,0.6-1,1.07-1.52,1.42c-0.51,0.35-1.27,0.65-2.26,0.91l-1.41,0.37l-9.32-35.91l-5.29,1.37l-11.68,3.67l0.73,2.81
		c1.25-0.08,2.18-0.05,2.8,0.09c0.61,0.15,1.12,0.41,1.52,0.81c0.41,0.39,0.79,0.96,1.13,1.71c0.35,0.74,0.69,1.68,1.03,2.82
		c0.34,1.14,0.83,2.93,1.46,5.38l8.63,33.23c0.47,1.82,0.81,3.22,1.01,4.22c0.19,0.99,0.26,1.8,0.22,2.4
		c-0.06,0.61-0.17,1.12-0.35,1.54c-0.17,0.43-0.47,0.83-0.88,1.23s-1.02,0.8-1.82,1.22l0.73,2.81l20.87-5.42l-0.73-2.81
		c-1.54,0.01-2.66-0.23-3.34-0.7s-1.25-1.2-1.68-2.18c-0.44-0.98-1.01-2.81-1.7-5.51l-2.26-8.69l2.05-0.53
		c0.79-0.21,1.45-0.24,1.96-0.1c0.51,0.14,1.05,0.4,1.64,0.78c0.58,0.38,1.38,1.03,2.41,1.94l4.56,4.09c2,1.76,3.37,3.07,4.14,3.95
		c0.76,0.88,1.23,1.69,1.42,2.42c0.29,1.08-0.18,1.91-1.39,2.5l0.73,2.81l20.83-5.41l-0.73-2.81
		C1433.39,2006.6,1432.61,2006.49,1431.94,2006.26z"/>
	<path d="M1459.85,1994.92c-0.59,0.56-1.18,0.99-1.77,1.3c-0.58,0.31-1.27,0.57-2.07,0.79c-1.04,0.29-2.02,0.16-2.92-0.37
		c-0.9-0.53-1.72-1.52-2.43-2.96c-0.72-1.45-1.51-3.77-2.38-6.97l-5.23-19.15l12.1-3.3l-1.45-5.31l-12.1,3.3l-2.89-10.61
		l-10.14,2.77c0.48,2.33,0.8,4.3,0.95,5.9c0.15,1.6,0.13,2.94-0.07,4.01s-0.63,2-1.29,2.79c-0.66,0.79-1.82,1.56-3.47,2.32l0.8,2.93
		l5.31-1.45l6.47,23.73c1.26,4.61,3.24,7.78,5.94,9.49c2.7,1.71,6.16,1.99,10.37,0.84c2.27-0.62,4.3-1.64,6.1-3.05
		c1.8-1.42,3.66-3.53,5.57-6.33l-3.65-2.84C1461.03,1993.64,1460.44,1994.37,1459.85,1994.92z"/>
	<path d="M1494.04,1952.62c-4.49-2.61-10.15-2.94-16.98-1c-3.02,0.86-5.7,2.09-8.03,3.68c-2.34,1.6-4.18,3.56-5.53,5.9
		c-1.34,2.33-2.15,5.03-2.41,8.1c-0.25,3.06,0.15,6.48,1.23,10.26c1.41,4.94,3.42,8.77,6.02,11.49c2.61,2.72,5.62,4.38,9.04,4.98
		c3.42,0.6,7.2,0.31,11.35-0.88c4.4-1.25,7.97-3.14,10.7-5.66c2.73-2.52,4.48-5.68,5.26-9.48c0.77-3.81,0.47-8.16-0.93-13.07
		C1501.78,1960.01,1498.54,1955.23,1494.04,1952.62z M1491.53,1988.37c-0.79,1.05-1.93,1.78-3.42,2.21
		c-2.71,0.77-5.16-0.14-7.35-2.74c-2.18-2.59-4.13-6.88-5.84-12.87c-1.09-3.81-1.7-7-1.86-9.58c-0.15-2.58,0.17-4.64,0.99-6.19
		c0.81-1.54,2.17-2.58,4.09-3.13c2.62-0.75,5.04,0.19,7.23,2.81c2.2,2.62,4.16,6.97,5.89,13.04c0.72,2.51,1.24,4.81,1.56,6.9
		s0.38,3.94,0.18,5.55C1492.8,1985.99,1492.31,1987.33,1491.53,1988.37z"/>
	<path d="M1558.47,1969.72c-0.67-0.21-1.23-0.57-1.66-1.09c-0.43-0.51-0.83-1.25-1.2-2.22c-0.37-0.96-0.87-2.51-1.51-4.65
		l-8.86-29.51l-16.44,4.93l0.83,2.78c1.25-0.01,2.18,0.1,2.8,0.33c0.62,0.23,1.13,0.58,1.54,1.07c0.4,0.49,0.8,1.22,1.18,2.2
		c0.39,0.97,0.88,2.48,1.5,4.53l4.88,16.27c0.4,1.32,0.37,2.69-0.08,4.09s-1.16,2.61-2.12,3.6c-0.95,0.99-1.96,1.65-2.99,1.96
		c-1.07,0.32-2.01,0.38-2.82,0.18c-0.81-0.2-1.59-0.67-2.33-1.41c-0.74-0.74-1.43-1.85-2.05-3.32c-0.63-1.46-1.34-3.55-2.15-6.24
		l-7.03-23.39l-16.39,4.92l0.83,2.78c0.84-0.04,1.54,0,2.08,0.11c0.54,0.11,0.99,0.29,1.34,0.51c0.36,0.23,0.67,0.51,0.95,0.84
		c0.26,0.33,0.51,0.72,0.74,1.16c0.22,0.44,0.48,1.08,0.78,1.91c0.29,0.83,0.67,2.03,1.15,3.6l4.63,15.43
		c1.02,3.4,2.25,6.06,3.67,7.97c1.43,1.91,3.21,3.16,5.33,3.73c2.12,0.57,4.66,0.41,7.64-0.48c2.08-0.62,4-1.72,5.77-3.29
		c1.77-1.57,3.59-3.96,5.48-7.16l0.55-0.02l1.44,6.18l5.1-1.53l11.35-3.82l-0.84-2.83
		C1560.18,1969.99,1559.14,1969.94,1558.47,1969.72z"/>
	<path d="M1635.55,1945.68c-0.62-0.11-1.14-0.32-1.56-0.63c-0.42-0.31-0.82-0.76-1.2-1.35c-0.38-0.59-0.75-1.42-1.13-2.48
		c-0.39-1.06-0.78-2.21-1.17-3.44l-4.89-15.3c-0.82-2.57-1.74-4.71-2.76-6.42c-1.02-1.7-2.21-3.02-3.55-3.95
		c-1.34-0.93-2.84-1.45-4.49-1.57s-3.6,0.18-5.84,0.89c-2.26,0.72-4.27,1.95-6.01,3.67c-1.74,1.73-3.6,4.36-5.59,7.88
		c-1.11-1.46-2.31-2.55-3.58-3.27c-1.28-0.72-2.69-1.12-4.22-1.21c-1.54-0.09-3.35,0.19-5.41,0.85c-2.12,0.68-4.05,1.83-5.78,3.46
		c-1.73,1.63-3.49,4.04-5.27,7.23l-0.55,0.03l-1.29-6.24l-5.28,1.69l-11.38,4l0.91,2.85c1.43-0.15,2.48-0.12,3.15,0.08
		c0.66,0.2,1.22,0.56,1.68,1.08c0.46,0.52,0.88,1.26,1.27,2.23c0.38,0.97,0.91,2.49,1.57,4.56l5.5,17.23
		c0.85,2.66,1.34,4.52,1.48,5.58c0.14,1.06,0.05,1.97-0.29,2.72c-0.33,0.75-1.11,1.52-2.33,2.32l0.88,2.77l20.08-6.41l-0.88-2.77
		c-1.36,0.09-2.38-0.08-3.08-0.52c-0.7-0.44-1.29-1.16-1.77-2.16c-0.49-1-1.16-2.81-1.99-5.44l-5.18-16.22
		c-0.42-1.32-0.42-2.67-0.02-4.06c0.4-1.39,1.06-2.59,1.99-3.59c0.93-1,1.91-1.67,2.94-2c0.78-0.25,1.46-0.36,2.04-0.33
		c0.58,0.03,1.12,0.17,1.61,0.41c0.49,0.24,0.98,0.61,1.46,1.11c0.48,0.49,0.93,1.1,1.34,1.83c0.42,0.73,0.87,1.72,1.34,2.97
		s1.01,2.79,1.6,4.64l3.58,11.23c0.86,2.68,1.36,4.56,1.52,5.64s0.09,1.98-0.22,2.72c-0.3,0.74-1.04,1.48-2.23,2.19l0.88,2.77
		l19.96-6.37l-0.88-2.77c-1.12,0.05-1.99-0.05-2.61-0.3s-1.14-0.65-1.56-1.19c-0.42-0.54-0.83-1.3-1.22-2.29
		c-0.39-0.98-0.89-2.43-1.5-4.33l-4.37-13.67c-0.52-1.65-0.86-2.85-0.99-3.61s-0.16-1.47-0.08-2.15c0.08-0.67,0.26-1.32,0.56-1.93
		c0.3-0.62,0.69-1.26,1.17-1.92c0.48-0.66,0.99-1.2,1.54-1.62c0.54-0.42,1.18-0.74,1.91-0.98c1.06-0.34,1.98-0.42,2.76-0.24
		c0.79,0.18,1.55,0.64,2.32,1.38c0.76,0.74,1.48,1.88,2.15,3.4c0.67,1.53,1.41,3.55,2.21,6.06l3.58,11.23
		c0.85,2.66,1.35,4.53,1.5,5.62s0.08,2.01-0.21,2.74c-0.29,0.74-1.01,1.46-2.17,2.17l0.88,2.77l20.21-6.45l-0.88-2.77
		C1636.9,1945.82,1636.18,1945.78,1635.55,1945.68z"/>
	<path d="M1680.84,1905.86c0.83,0.15,1.64,0.62,2.44,1.42c0.8,0.8,1.66,2.01,2.6,3.65l4.7-1.62l-6.23-18.15l-4.7,1.61
		c0.29,1.83,0.36,3.29,0.23,4.39c-0.13,1.1-0.49,1.98-1.06,2.62c-0.57,0.65-1.5,1.19-2.81,1.64l-5.33,1.83l-7.27-21.19l8.04-2.76
		c2.14-0.73,3.74-0.98,4.82-0.74s2.09,0.71,3.05,1.42c0.95,0.71,2.34,2.23,4.17,4.55l5.7-1.96l-4.54-13.24l-40.25,13.82l0.95,2.75
		c1.15-0.09,2.08-0.06,2.8,0.08c0.72,0.14,1.32,0.44,1.8,0.9c0.48,0.46,0.91,1.11,1.29,1.98c0.37,0.86,0.79,1.95,1.23,3.25
		l12.3,35.84c0.46,1.33,0.79,2.46,1.02,3.37c0.22,0.92,0.29,1.71,0.19,2.38c-0.09,0.67-0.38,1.27-0.86,1.81
		c-0.49,0.54-1.2,1.11-2.14,1.71l0.94,2.75l22.4-7.69l-0.95-2.74c-1.02,0.19-1.85,0.27-2.5,0.23c-0.65-0.04-1.19-0.15-1.61-0.33
		s-0.82-0.47-1.2-0.87s-0.75-0.96-1.09-1.69c-0.35-0.73-0.77-1.84-1.27-3.31l-5.3-15.44l5.32-1.83
		C1678.96,1905.85,1680.01,1905.71,1680.84,1905.86z"/>
	<path d="M1728.98,1876.19c-4.66-2.32-10.33-2.28-17.02,0.1c-2.96,1.05-5.55,2.45-7.78,4.2c-2.23,1.74-3.94,3.82-5.14,6.24
		s-1.82,5.16-1.88,8.24c-0.06,3.07,0.57,6.46,1.89,10.16c1.72,4.84,3.97,8.53,6.74,11.08c2.78,2.55,5.89,4.01,9.34,4.38
		c3.44,0.38,7.2-0.16,11.27-1.61c4.31-1.53,7.75-3.65,10.31-6.34c2.56-2.69,4.11-5.95,4.64-9.8c0.53-3.85-0.06-8.18-1.77-12.98
		C1737.17,1883.06,1733.63,1878.5,1728.98,1876.19z M1728.77,1912.02c-0.72,1.09-1.8,1.9-3.27,2.42c-2.65,0.94-5.16,0.19-7.51-2.26
		c-2.35-2.45-4.57-6.6-6.65-12.46c-1.33-3.73-2.16-6.88-2.48-9.44s-0.13-4.64,0.58-6.23c0.71-1.59,2-2.72,3.88-3.39
		c2.57-0.91,5.04-0.14,7.4,2.34c2.36,2.48,4.6,6.69,6.71,12.63c0.88,2.46,1.54,4.72,2,6.79s0.63,3.91,0.54,5.53
		C1729.89,1909.57,1729.49,1910.93,1728.77,1912.02z"/>
	<path d="M1794.5,1889.11c-0.69-0.17-1.26-0.49-1.72-0.98c-0.47-0.49-0.91-1.2-1.34-2.14c-0.42-0.94-1.02-2.45-1.8-4.54
		l-10.71-28.89l-16.09,5.96l1.01,2.72c1.25-0.09,2.19-0.04,2.82,0.15s1.17,0.51,1.61,0.98c0.44,0.47,0.88,1.17,1.32,2.12
		s1.04,2.42,1.78,4.43l5.91,15.93c0.48,1.29,0.54,2.66,0.17,4.09c-0.36,1.43-0.99,2.68-1.88,3.73c-0.9,1.05-1.85,1.76-2.87,2.14
		c-1.05,0.39-1.98,0.5-2.8,0.35c-0.82-0.15-1.63-0.57-2.41-1.26c-0.79-0.69-1.54-1.75-2.26-3.18c-0.71-1.42-1.56-3.46-2.54-6.1
		l-8.49-22.9l-16.05,5.95l1.01,2.72c0.84-0.09,1.54-0.1,2.08-0.02c0.55,0.08,1.01,0.22,1.38,0.43c0.37,0.21,0.7,0.47,0.99,0.78
		c0.29,0.31,0.56,0.68,0.81,1.11c0.25,0.42,0.55,1.04,0.9,1.85c0.35,0.81,0.81,1.99,1.38,3.52l5.59,15.11
		c1.23,3.33,2.62,5.9,4.17,7.72c1.55,1.82,3.4,2.95,5.55,3.39c2.15,0.44,4.68,0.12,7.6-0.96c2.03-0.76,3.88-1.97,5.55-3.65
		c1.66-1.68,3.33-4.17,5.02-7.49l0.54-0.06l1.83,6.08l4.99-1.85l11.09-4.53l-1.03-2.76
		C1796.23,1889.26,1795.19,1889.28,1794.5,1889.11z"/>
	<path d="M1846.04,1869.68c-0.63-0.07-1.16-0.25-1.59-0.54c-0.45-0.29-0.87-0.71-1.27-1.28c-0.41-0.57-0.83-1.37-1.28-2.41
		c-0.45-1.04-0.9-2.16-1.37-3.36l-5.8-15.03c-0.9-2.36-1.9-4.35-2.98-5.97c-1.08-1.63-2.32-2.88-3.71-3.76
		c-1.39-0.88-2.95-1.35-4.68-1.43c-1.73-0.07-3.72,0.32-5.96,1.19c-1.56,0.6-2.94,1.43-4.16,2.48c-1.21,1.05-2.3,2.25-3.25,3.61
		c-0.96,1.36-1.99,3.12-3.11,5.28l-0.54,0.07l-1.67-6.15l-5.17,2l-11.13,4.67l1.08,2.79c1.42-0.23,2.46-0.27,3.15-0.1
		c0.68,0.16,1.25,0.49,1.74,0.98s0.95,1.21,1.4,2.15c0.44,0.95,1.05,2.43,1.84,4.46l6.51,16.88c1,2.6,1.6,4.43,1.8,5.48
		c0.2,1.05,0.16,1.97-0.12,2.74c-0.29,0.77-1.02,1.59-2.2,2.45l1.05,2.71l19.83-7.65l-1.04-2.71c-1.41,0.19-2.47,0.1-3.21-0.3
		c-0.73-0.39-1.38-1.06-1.93-2.01c-0.56-0.95-1.34-2.72-2.34-5.32l-6.1-15.81c-0.49-1.28-0.58-2.64-0.25-4.08
		c0.33-1.43,0.93-2.68,1.8-3.76c0.88-1.08,1.84-1.81,2.87-2.22c0.77-0.3,1.43-0.46,1.98-0.48c0.56-0.03,1.09,0.06,1.61,0.25
		c0.51,0.19,1.04,0.5,1.56,0.91c0.51,0.41,1.02,0.98,1.5,1.71c0.49,0.72,1.01,1.69,1.57,2.91c0.56,1.21,1.22,2.79,1.96,4.74
		l4.23,10.97c1,2.6,1.61,4.44,1.82,5.5c0.2,1.07,0.17,1.99-0.09,2.77s-0.97,1.56-2.12,2.35l1.04,2.71l19.92-7.68l-1.04-2.71
		C1847.39,1869.74,1846.67,1869.75,1846.04,1869.68z"/>
	<path d="M1894.8,1849.86c-0.69-0.15-1.27-0.46-1.75-0.94c-0.47-0.47-0.94-1.17-1.38-2.1c-0.45-0.93-1.09-2.42-1.92-4.49
		l-18.65-46.58l-5.11,2.05l-11.08,5.1l1.09,2.74c1.47-0.27,2.54-0.33,3.19-0.19c0.66,0.15,1.25,0.49,1.76,1.02
		c0.51,0.54,1.06,1.4,1.63,2.57c0.56,1.18,1.43,3.23,2.6,6.14l1.49,3.72c-1.75,0.2-3.24,0.45-4.45,0.77s-2.43,0.71-3.63,1.19
		c-4.17,1.67-7.4,3.91-9.71,6.73c-2.3,2.82-3.56,6.11-3.79,9.89c-0.23,3.77,0.58,7.97,2.44,12.6c2.73,6.84,6.02,11.46,9.85,13.88
		c3.83,2.42,8.22,2.64,13.18,0.65c1.99-0.8,3.85-2.16,5.58-4.11c1.74-1.94,3.19-4.3,4.36-7.07l0.63-0.21l1.99,6.03l4.94-1.98
		l10.97-4.82l-1.09-2.74C1896.53,1849.97,1895.5,1850.01,1894.8,1849.86z M1877.8,1850.13c-0.31,1.53-0.92,2.82-1.84,3.87
		c-0.93,1.05-1.97,1.81-3.14,2.28c-2.48,0.99-4.84,0.4-7.06-1.77c-2.23-2.17-4.42-5.94-6.57-11.31c-1.25-3.13-2.03-5.97-2.33-8.5
		c-0.31-2.53-0.1-4.65,0.63-6.35c0.72-1.7,1.93-2.88,3.63-3.56c2.31-0.93,4.35-0.81,6.11,0.35c1.76,1.16,3.31,3.4,4.64,6.72
		l5.44,13.61C1877.93,1847.05,1878.1,1848.6,1877.8,1850.13z"/>
	<path d="M1940.06,1831.55c-0.47-0.01-0.9-0.1-1.28-0.28c-0.39-0.17-0.77-0.46-1.15-0.86c-0.37-0.4-0.8-1.08-1.29-2.02
		c-0.48-0.94-1.1-2.31-1.84-4.09l-6.57-15.86c-1.43-3.44-3.03-5.94-4.82-7.48c-1.78-1.55-3.83-2.35-6.16-2.4
		c-2.32-0.05-5.13,0.6-8.41,1.96c-1.28,0.53-2.52,1.14-3.72,1.83c-1.21,0.69-2.54,1.57-3.99,2.63s-2.88,2.23-4.29,3.51
		c-1.41,1.28-3.12,3-5.16,5.14l3.06,7.4l7.69-3.18c-0.54-2.29-0.69-4.19-0.45-5.7c0.23-1.51,0.71-2.67,1.44-3.48
		c0.72-0.81,1.71-1.47,2.96-1.99c1.25-0.51,2.44-0.68,3.56-0.5c1.12,0.19,2.25,0.85,3.39,1.98c1.13,1.13,2.23,2.96,3.27,5.48
		l1.6,3.86c-7.72,3.9-13.07,7.8-16.03,11.72c-2.97,3.91-3.63,7.86-1.98,11.85c0.82,1.98,1.98,3.55,3.49,4.7
		c1.51,1.16,3.31,1.8,5.38,1.94c2.07,0.14,4.28-0.27,6.61-1.24c2.36-0.97,4.38-2.39,6.08-4.23c1.7-1.84,3.21-4.31,4.53-7.4l0.7-0.05
		l1.84,5.48l15.13-6.27l-1.11-2.68C1941.36,1831.48,1940.53,1831.56,1940.06,1831.55z M1922.91,1832.16
		c-0.19,1.38-0.7,2.63-1.54,3.76c-0.84,1.12-1.88,1.94-3.12,2.46c-1.62,0.67-3.08,0.76-4.37,0.26c-1.29-0.5-2.28-1.59-2.97-3.27
		c-1.17-2.82-1.04-5.38,0.37-7.68s4.2-4.38,8.35-6.22l2.8,6.75C1922.93,1829.46,1923.09,1830.78,1922.91,1832.16z"/>
	<path d="M1969.95,1814.76c-0.51,0.64-1.04,1.15-1.57,1.53c-0.54,0.39-1.18,0.75-1.94,1.07c-0.99,0.43-1.98,0.45-2.94,0.05
		c-0.97-0.4-1.91-1.26-2.82-2.6c-0.91-1.33-2.02-3.52-3.33-6.57l-7.83-18.24l11.52-4.95l-2.17-5.06l-11.52,4.95l-4.34-10.11
		l-9.66,4.15c0.8,2.24,1.38,4.15,1.75,5.71s0.54,2.89,0.49,3.98c-0.04,1.09-0.34,2.07-0.89,2.95c-0.55,0.87-1.59,1.8-3.12,2.78
		l1.2,2.79l5.06-2.17l9.71,22.6c1.89,4.4,4.29,7.25,7.2,8.57c2.91,1.32,6.37,1.12,10.4-0.61c2.16-0.93,4.03-2.22,5.62-3.87
		c1.59-1.66,3.13-4,4.64-7.05l-4.01-2.3C1970.94,1813.33,1970.46,1814.12,1969.95,1814.76z"/>
	<path d="M1996.49,1807.37c-0.56-0.04-1.03-0.16-1.4-0.35c-0.38-0.19-0.71-0.43-1.01-0.71c-0.3-0.29-0.58-0.63-0.86-1.04
		c-0.27-0.41-0.61-1.01-1-1.82s-0.93-1.96-1.58-3.47l-12.46-28.7l-5.04,2.19l-10.96,5.15l1.19,2.74c1-0.21,1.84-0.31,2.53-0.31
		c0.69,0.01,1.3,0.18,1.85,0.51c0.55,0.34,1.06,0.89,1.53,1.64c0.47,0.75,0.99,1.79,1.57,3.11l8.15,18.77
		c1.11,2.56,1.79,4.36,2.03,5.4c0.25,1.04,0.24,1.96-0.01,2.74c-0.25,0.78-0.96,1.64-2.13,2.56l1.16,2.67l19.7-8.56l-1.16-2.67
		C1997.75,1807.37,1997.05,1807.42,1996.49,1807.37z"/>
	
		<rect x="1961.58" y="1757.59" transform="matrix(0.9173 -0.3982 0.3982 0.9173 -539.2584 929.1953)" width="12.06" height="10.78"/>
	<path d="M2025.04,1756.3c-4.82-1.95-10.47-1.48-16.96,1.41c-2.87,1.28-5.35,2.87-7.44,4.78c-2.09,1.91-3.63,4.12-4.64,6.62
		c-1,2.51-1.42,5.29-1.24,8.36c0.18,3.07,1.06,6.4,2.66,9.99c2.09,4.69,4.62,8.2,7.58,10.52c2.96,2.32,6.19,3.54,9.65,3.65
		c3.47,0.11,7.17-0.72,11.11-2.47c4.18-1.86,7.45-4.23,9.8-7.11c2.34-2.88,3.64-6.26,3.87-10.13c0.23-3.88-0.69-8.15-2.77-12.81
		C2033.73,1762.52,2029.86,1758.25,2025.04,1756.3z M2027.59,1792.05c-0.63,1.14-1.66,2.04-3.08,2.67
		c-2.57,1.14-5.12,0.59-7.65-1.67c-2.53-2.26-5.07-6.23-7.6-11.91c-1.61-3.62-2.67-6.69-3.19-9.23c-0.51-2.53-0.48-4.62,0.1-6.26
		c0.58-1.64,1.79-2.87,3.61-3.68c2.49-1.11,5.01-0.52,7.56,1.77c2.55,2.29,5.1,6.31,7.67,12.07c1.06,2.39,1.9,4.59,2.51,6.61
		c0.61,2.02,0.93,3.85,0.97,5.47C2028.52,1789.52,2028.22,1790.9,2027.59,1792.05z"/>
	<path d="M2092.71,1763.92c-0.63-0.03-1.17-0.18-1.63-0.44c-0.46-0.26-0.91-0.65-1.35-1.19c-0.45-0.54-0.92-1.32-1.43-2.32
		c-0.51-1.01-1.04-2.1-1.58-3.27l-6.74-14.63c-1.06-2.29-2.18-4.21-3.36-5.77s-2.5-2.72-3.95-3.51c-1.45-0.79-3.03-1.16-4.76-1.13
		c-1.73,0.04-3.68,0.56-5.87,1.57c-1.52,0.7-2.85,1.61-4,2.74c-1.14,1.12-2.15,2.39-3.01,3.81c-0.87,1.42-1.79,3.24-2.77,5.47
		l-0.54,0.1l-2.05-6.03l-5.04,2.32l-10.81,5.36l1.25,2.72c1.4-0.32,2.44-0.42,3.13-0.3c0.68,0.12,1.28,0.41,1.8,0.86
		c0.51,0.46,1.02,1.14,1.53,2.06c0.5,0.92,1.2,2.36,2.12,4.33l7.56,16.43c1.17,2.53,1.89,4.32,2.15,5.36
		c0.27,1.04,0.29,1.95,0.06,2.74c-0.24,0.79-0.92,1.65-2.04,2.58l1.22,2.64l19.31-8.89l-1.22-2.64c-1.38,0.28-2.46,0.25-3.21-0.09
		c-0.76-0.34-1.44-0.97-2.06-1.89c-0.61-0.91-1.5-2.63-2.67-5.17l-7.09-15.39c-0.58-1.25-0.74-2.61-0.51-4.05
		c0.24-1.45,0.76-2.74,1.56-3.87c0.81-1.13,1.71-1.93,2.73-2.39c0.74-0.34,1.4-0.55,1.95-0.61c0.56-0.06,1.09-0.01,1.62,0.15
		c0.53,0.16,1.06,0.43,1.61,0.81s1.09,0.92,1.61,1.61c0.53,0.7,1.11,1.63,1.75,2.8c0.64,1.18,1.4,2.71,2.27,4.6l4.91,10.67
		c1.17,2.53,1.89,4.32,2.16,5.38c0.27,1.05,0.31,1.98,0.09,2.77c-0.22,0.79-0.87,1.62-1.96,2.48l1.22,2.64l19.39-8.93l-1.22-2.64
		C2094.05,1763.9,2093.33,1763.95,2092.71,1763.92z"/>
	<path d="M2134.68,1743.32c-0.77-0.22-1.46-0.69-2.07-1.41c-0.61-0.72-1.38-2.07-2.33-4.05l-11.7-24.45l7.66-3.67l-2.38-4.96
		l-7.66,3.67l-1.44-3.02c-1.2-2.52-2.02-4.52-2.47-6.02c-0.44-1.5-0.54-2.77-0.29-3.81c0.25-1.05,0.94-1.84,2.08-2.39
		c0.87-0.42,1.75-0.41,2.62,0.02c0.87,0.43,1.88,1.26,3.03,2.5l5.4-2.58l-3.88-8.1c-1.96,0.48-4.06,1.26-6.34,2.35
		c-5.69,2.72-9.5,6.06-11.45,9.99c-1.93,3.94-1.98,8.39-0.12,13.35c0.38,0.99,0.62,1.84,0.72,2.53c0.1,0.7,0.09,1.32-0.04,1.85
		c-0.13,0.54-0.39,1.03-0.77,1.49c-0.38,0.46-1.15,1.08-2.3,1.86l1.31,2.74l4.84-2.32l11.7,24.45c0.97,2.01,1.53,3.47,1.7,4.38
		c0.18,0.91,0.13,1.7-0.15,2.39c-0.27,0.69-0.95,1.51-2.01,2.47l1.25,2.62l19.77-9.46l-1.25-2.62
		C2136.6,1743.48,2135.45,1743.54,2134.68,1743.32z"/>
	<path d="M2163.41,1690.9c-4.89-1.77-10.52-1.09-16.89,2.04c-2.82,1.38-5.23,3.07-7.25,5.06s-3.48,4.25-4.39,6.79
		c-0.91,2.54-1.22,5.34-0.93,8.4c0.29,3.06,1.31,6.36,3.04,9.88c2.26,4.61,4.91,8.02,7.96,10.23c3.05,2.22,6.31,3.31,9.78,3.29
		c3.47-0.02,7.14-0.98,11.01-2.88c4.11-2.01,7.28-4.51,9.52-7.47c2.24-2.96,3.4-6.39,3.49-10.27c0.09-3.88-0.99-8.12-3.24-12.7
		C2172.33,1696.79,2168.29,1692.66,2163.41,1690.9z M2167.29,1726.52c-0.58,1.17-1.58,2.1-2.97,2.78c-2.53,1.24-5.1,0.78-7.72-1.38
		c-2.62-2.16-5.3-6.04-8.04-11.62c-1.75-3.56-2.92-6.59-3.53-9.1c-0.61-2.51-0.65-4.6-0.13-6.26c0.53-1.66,1.68-2.94,3.47-3.81
		c2.45-1.2,4.99-0.71,7.62,1.48c2.63,2.19,5.33,6.12,8.11,11.78c1.15,2.34,2.07,4.52,2.76,6.51c0.69,2,1.08,3.81,1.17,5.43
		C2168.12,1723.96,2167.87,1725.35,2167.29,1726.52z"/>
	<path d="M2206.8,1707.72c-0.83-0.29-1.6-0.88-2.28-1.78c-0.69-0.9-1.66-2.6-2.92-5.08l-6.33-12.53c-0.69-1.36-1.16-2.4-1.43-3.12
		c-0.26-0.72-0.44-1.48-0.53-2.27c-0.09-0.79,0-1.66,0.26-2.6s0.65-1.76,1.17-2.46c0.51-0.71,1.06-1.2,1.64-1.49
		c1.2-0.61,2.37-0.69,3.5-0.24c1.13,0.45,2.3,1.32,3.51,2.61l7.11-3.59l-5.48-10.84c-1.93,0.55-3.69,1.22-5.29,2.03
		c-2.36,1.19-4.29,2.79-5.81,4.81c-1.51,2.01-2.65,4.63-3.43,7.85l-0.57,0.14l-2.44-6.21l-4.95,2.5l-10.6,5.75l1.35,2.67
		c1.39-0.37,2.43-0.51,3.12-0.42c0.69,0.1,1.29,0.36,1.83,0.8c0.54,0.44,1.06,1.11,1.6,2c0.54,0.9,1.29,2.31,2.28,4.25l8.16,16.15
		c1.26,2.49,2.04,4.24,2.34,5.27c0.31,1.03,0.35,1.94,0.15,2.73c-0.21,0.79-0.86,1.68-1.94,2.65l1.31,2.59l19.37-9.78l-1.32-2.59
		C2208.76,1707.93,2207.63,1708,2206.8,1707.72z"/>
	<path d="M2280.76,1638.71c-1.77-3.35-3.69-6.17-5.77-8.47c-2.08-2.3-4.35-4.09-6.8-5.37c-2.45-1.28-5.18-2.05-8.21-2.31
		c-3.02-0.26-6.16,0.04-9.43,0.9c-3.26,0.86-7.06,2.44-11.39,4.73l-20.23,10.69l1.36,2.57c1.12-0.26,2.05-0.38,2.78-0.35
		c0.73,0.03,1.37,0.23,1.91,0.61c0.55,0.38,1.07,0.96,1.58,1.76c0.5,0.8,1.08,1.81,1.72,3.02l17.72,33.54
		c0.66,1.25,1.17,2.3,1.52,3.16c0.35,0.86,0.54,1.62,0.54,2.3c0.01,0.67-0.19,1.31-0.59,1.9c-0.4,0.59-1.01,1.27-1.83,2.04
		l1.36,2.57l17.67-9.34c4.17-2.21,7.51-4.27,10.02-6.19c2.9-2.23,5.23-4.66,6.98-7.27c1.75-2.62,2.93-5.4,3.53-8.34
		c0.69-3.28,0.65-6.78-0.1-10.5C2284.35,1646.64,2282.9,1642.75,2280.76,1638.71z M2273.21,1667.38c-0.43,1.62-1.22,3.13-2.34,4.52
		c-1.51,1.86-3.69,3.54-6.54,5.05c-1.89,1-3.1,1.59-3.6,1.76l-23.13-43.78c0.67-0.42,1.81-1.06,3.42-1.91
		c3.35-1.77,6.63-2.52,9.85-2.24c3.21,0.27,6.35,1.69,9.39,4.25c3.05,2.56,5.87,6.3,8.47,11.23c2.37,4.49,3.91,8.54,4.62,12.14
		C2274,1661.71,2273.96,1664.7,2273.21,1667.38z"/>
	
		<rect x="2279.18" y="1602.96" transform="matrix(0.8786 -0.4775 0.4775 0.8786 -490.6507 1286.5178)" width="12.06" height="10.78"/>
	<path d="M2317.88,1650.02c-0.56,0.01-1.04-0.07-1.43-0.23c-0.38-0.16-0.74-0.37-1.06-0.62c-0.32-0.26-0.64-0.58-0.95-0.96
		c-0.31-0.38-0.7-0.96-1.16-1.72s-1.09-1.87-1.88-3.31l-14.95-27.49l-4.84,2.63l-10.47,6.09l1.43,2.63c0.97-0.3,1.8-0.47,2.49-0.53
		c0.69-0.06,1.32,0.06,1.89,0.35c0.58,0.29,1.13,0.79,1.67,1.5c0.54,0.71,1.15,1.7,1.83,2.96l9.78,17.98
		c1.34,2.45,2.17,4.19,2.51,5.2s0.41,1.93,0.23,2.73c-0.18,0.8-0.81,1.71-1.89,2.73l1.38,2.55l18.87-10.26l-1.38-2.55
		C2319.14,1649.91,2318.45,1650.02,2317.88,1650.02z"/>
	<path d="M2346.75,1616.83c-1.59-0.98-3.44-1.6-5.56-1.85c-2.12-0.25-4.66-0.21-7.63,0.14c-3.26,0.37-5.52,0.48-6.81,0.34
		c-1.29-0.14-2.3-0.46-3.05-0.95c-0.74-0.49-1.38-1.22-1.93-2.2c-0.77-1.39-0.86-2.74-0.29-4.07c0.57-1.33,1.7-2.46,3.4-3.4
		c1.18-0.65,2.29-1.04,3.33-1.17c1.04-0.13,2.16,0.07,3.37,0.57c1.2,0.5,2.55,1.42,4.06,2.73l5.08-2.82l-4.98-8.96
		c-3.13,1.07-5.64,2.02-7.51,2.87c-1.89,0.85-3.76,1.79-5.63,2.83c-3.18,1.77-5.76,3.79-7.74,6.06c-1.98,2.28-3.16,4.63-3.56,7.06
		c-0.39,2.43,0.06,4.8,1.34,7.11c0.79,1.41,1.77,2.54,2.95,3.4c1.18,0.86,2.49,1.49,3.93,1.92c1.45,0.42,2.99,0.66,4.65,0.71
		c1.66,0.05,3.37-0.01,5.12-0.17c3.12-0.29,5.39-0.39,6.81-0.29c1.41,0.1,2.55,0.4,3.42,0.9s1.59,1.27,2.17,2.32
		c0.93,1.67,1.13,3.21,0.63,4.63c-0.5,1.42-1.72,2.67-3.64,3.74c-2.23,1.24-4.33,1.65-6.32,1.22c-1.98-0.43-3.93-1.64-5.84-3.63
		l-5.16,2.87l5.11,9.2c5.84-1.67,10.89-3.69,15.12-6.04c2.33-1.3,4.33-2.72,6.01-4.27c1.67-1.55,2.93-3.2,3.77-4.94
		c0.84-1.74,1.23-3.58,1.17-5.51c-0.06-1.93-0.67-3.93-1.83-6.01C2349.66,1619.25,2348.34,1617.81,2346.75,1616.83z"/>
	<path d="M2381.45,1610.16c-0.44,0.69-0.9,1.26-1.39,1.7c-0.49,0.45-1.09,0.87-1.8,1.28c-0.95,0.54-1.92,0.66-2.93,0.37
		c-1-0.29-2.03-1.04-3.08-2.27c-1.05-1.22-2.4-3.28-4.04-6.16l-9.82-17.25l10.9-6.2l-2.71-4.78l-10.9,6.2l-5.44-9.56l-9.14,5.2
		c1.04,2.14,1.84,3.97,2.38,5.48c0.54,1.52,0.85,2.82,0.93,3.9c0.08,1.09-0.11,2.09-0.56,3.03c-0.45,0.93-1.38,1.97-2.79,3.1
		l1.5,2.64l4.79-2.72l12.16,21.39c2.36,4.16,5.07,6.73,8.11,7.72c3.04,0.99,6.46,0.4,10.26-1.76c2.04-1.16,3.76-2.65,5.15-4.47
		c1.4-1.82,2.67-4.33,3.83-7.52l-4.24-1.84C2382.28,1608.63,2381.89,1609.48,2381.45,1610.16z"/>
	
		<rect x="2366.96" y="1553.67" transform="matrix(0.8652 -0.5015 0.5015 0.8652 -461.8852 1400.2189)" width="12.06" height="10.78"/>
	<path d="M2406.8,1599.82c-0.56,0.02-1.04-0.04-1.43-0.19c-0.39-0.15-0.75-0.34-1.08-0.59c-0.33-0.25-0.66-0.56-0.97-0.94
		c-0.32-0.38-0.72-0.94-1.21-1.69s-1.14-1.84-1.97-3.26l-15.7-27.07l-4.76,2.76l-10.29,6.38l1.5,2.59c0.97-0.32,1.79-0.52,2.48-0.6
		c0.68-0.07,1.32,0.02,1.9,0.3c0.58,0.27,1.16,0.76,1.7,1.45c0.56,0.7,1.2,1.67,1.92,2.91l10.26,17.71c1.4,2.41,2.28,4.12,2.64,5.13
		c0.36,1.01,0.47,1.92,0.31,2.72c-0.16,0.81-0.77,1.73-1.82,2.78l1.45,2.52l18.58-10.77l-1.45-2.51
		C2408.05,1599.67,2407.36,1599.79,2406.8,1599.82z"/>
	<path d="M2453.71,1571.99c-0.63,0.03-1.18-0.06-1.66-0.26c-0.48-0.21-0.97-0.56-1.47-1.05c-0.49-0.49-1.05-1.21-1.67-2.16
		c-0.61-0.95-1.25-1.98-1.91-3.09l-8.24-13.84c-1.29-2.17-2.61-3.96-3.95-5.38c-1.34-1.42-2.77-2.45-4.29-3.08
		c-1.52-0.63-3.14-0.84-4.85-0.62c-1.72,0.22-3.61,0.94-5.68,2.17c-1.43,0.86-2.66,1.9-3.68,3.14c-1.02,1.24-1.89,2.61-2.6,4.11
		s-1.44,3.41-2.18,5.73l-0.51,0.16l-2.68-5.78l-4.77,2.84l-10.18,6.47l1.53,2.57c1.36-0.47,2.39-0.68,3.08-0.63
		c0.7,0.05,1.32,0.27,1.89,0.67c0.56,0.4,1.14,1.03,1.74,1.88c0.59,0.86,1.45,2.22,2.55,4.08l9.25,15.54
		c1.43,2.39,2.33,4.09,2.71,5.1c0.38,1.01,0.49,1.91,0.33,2.72c-0.15,0.81-0.73,1.74-1.75,2.78l1.48,2.49l18.27-10.87l-1.48-2.49
		c-1.35,0.43-2.42,0.51-3.21,0.24c-0.79-0.26-1.54-0.82-2.25-1.66c-0.7-0.84-1.77-2.46-3.19-4.86l-8.67-14.56
		c-0.7-1.18-1.02-2.51-0.93-3.98c0.08-1.46,0.47-2.8,1.14-4.01c0.68-1.21,1.5-2.1,2.46-2.67c0.7-0.42,1.33-0.69,1.87-0.81
		s1.09-0.13,1.63-0.02s1.1,0.32,1.68,0.64c0.58,0.32,1.18,0.79,1.77,1.43c0.6,0.64,1.28,1.5,2.03,2.61c0.77,1.1,1.68,2.55,2.74,4.34
		l6.01,10.1c1.43,2.39,2.33,4.1,2.71,5.12c0.38,1.02,0.51,1.93,0.38,2.74c-0.13,0.81-0.69,1.7-1.68,2.67l1.48,2.49l18.34-10.92
		l-1.49-2.49C2455.05,1571.83,2454.34,1571.96,2453.71,1571.99z"/>
	<path d="M2493.09,1547.15c-3.08-0.35-6.69,0.76-10.87,3.33l-9.3,5.72c-1.38,0.85-2.51,1.39-3.38,1.64
		c-0.88,0.25-1.6,0.27-2.16,0.06c-0.56-0.21-1.06-0.69-1.52-1.44c-0.8-1.3-0.93-2.89-0.36-4.79c1.85-0.52,4.01-1.54,6.49-3.06
		c5.12-3.15,8.31-6.66,9.57-10.53c1.25-3.87,0.54-7.98-2.14-12.33c-1.04-1.7-2.17-3.01-3.38-3.94c-1.2-0.93-2.37-1.53-3.51-1.8
		l-0.1-0.5l6.85-3.23l-3.09-5.02l-13.53,8.33c-1.02,0.42-2.05,0.87-3.1,1.34c-1.05,0.48-2.21,1.11-3.49,1.89
		c-2.3,1.41-4.29,2.97-5.98,4.69c-1.68,1.71-2.94,3.54-3.76,5.49c-0.81,1.95-1.13,4.01-0.95,6.19c0.19,2.18,1,4.43,2.42,6.75
		c1.48,2.4,3.26,4.19,5.36,5.36c2.1,1.17,4.46,1.71,7.08,1.61c-0.68,1.8-1.18,3.37-1.47,4.7c-0.3,1.34-0.38,2.67-0.23,3.99
		c0.14,1.33,0.57,2.57,1.29,3.75c0.88,1.43,1.85,2.48,2.93,3.16c1.07,0.68,2.37,1.08,3.88,1.18c-1.11,1.85-1.73,3.65-1.9,5.4
		c-0.16,1.75,0.2,3.34,1.07,4.77c1.09,1.77,2.44,2.96,4.03,3.57c1.59,0.61,3.41,0.74,5.44,0.4s4.27-1.09,6.73-2.25
		c2.45-1.17,5.09-2.62,7.91-4.35c3.88-2.38,6.92-4.95,9.11-7.7c2.2-2.75,3.47-5.55,3.79-8.41c0.33-2.85-0.33-5.62-1.97-8.29
		C2498.75,1549.39,2496.17,1547.5,2493.09,1547.15z M2458.28,1538.86c-1.83-2.97-2.74-5.45-2.74-7.43c0.01-1.98,0.93-3.54,2.78-4.68
		c1.82-1.12,3.67-1.15,5.55-0.09c1.88,1.07,3.76,3.14,5.65,6.21c1.8,2.93,2.69,5.38,2.64,7.37c-0.03,1.99-0.91,3.51-2.64,4.57
		c-1.9,1.17-3.76,1.26-5.6,0.27C2462.1,1544.07,2460.21,1542,2458.28,1538.86z M2493.51,1567.36c-0.99,2.06-3.06,4.05-6.21,5.99
		c-3.37,2.07-6.1,3.16-8.2,3.26c-2.09,0.1-3.69-0.75-4.8-2.55c-0.66-1.08-1.01-2.17-1.06-3.28c-0.04-1.11,0.17-2.29,0.64-3.54
		c1.09-0.53,2.54-1.36,4.36-2.48l6.45-3.97c1.59-0.98,2.96-1.54,4.08-1.68c1.12-0.14,2.02,0,2.69,0.41c0.67,0.42,1.26,1.05,1.79,1.9
		C2494.41,1563.32,2494.5,1565.3,2493.51,1567.36z"/>
	<path d="M2537.81,1519.12c-0.71-0.02-1.34-0.22-1.89-0.59c-0.56-0.38-1.14-0.98-1.75-1.81c-0.61-0.83-1.52-2.18-2.71-4.06
		l-16.53-26l-14.49,9.21l1.56,2.45c1.2-0.35,2.14-0.5,2.8-0.45c0.65,0.05,1.25,0.26,1.77,0.62c0.52,0.36,1.1,0.96,1.73,1.79
		c0.63,0.83,1.53,2.15,2.68,3.96l9.12,14.33c0.74,1.17,1.08,2.48,1.03,3.96c-0.06,1.48-0.41,2.82-1.06,4.04
		c-0.65,1.21-1.44,2.11-2.36,2.7c-0.94,0.6-1.82,0.91-2.66,0.94s-1.71-0.22-2.63-0.73c-0.92-0.51-1.87-1.39-2.87-2.63
		c-0.99-1.24-2.25-3.05-3.76-5.43l-13.1-20.61l-14.45,9.18l1.56,2.45c0.81-0.26,1.48-0.42,2.03-0.46c0.55-0.03,1.03,0.01,1.44,0.13
		c0.4,0.13,0.79,0.31,1.13,0.56c0.35,0.25,0.69,0.55,1.02,0.92c0.33,0.36,0.76,0.9,1.27,1.62c0.51,0.72,1.2,1.77,2.09,3.16
		l8.64,13.59c1.91,3,3.81,5.22,5.7,6.68c1.9,1.45,3.95,2.17,6.14,2.15c2.2-0.02,4.61-0.87,7.23-2.54c1.84-1.16,3.39-2.74,4.66-4.73
		c1.27-1.99,2.39-4.78,3.33-8.38l0.52-0.17l3.06,5.56l4.5-2.86l9.89-6.76l-1.58-2.49
		C2539.53,1518.9,2538.51,1519.14,2537.81,1519.12z"/>
	
		<rect x="2519.99" y="1459.48" transform="matrix(0.8371 -0.5471 0.5471 0.8371 -389.8643 1620.6068)" width="12.06" height="10.79"/>
	<path d="M2561.96,1503.77c-0.56,0.05-1.04,0.01-1.44-0.11c-0.4-0.13-0.77-0.3-1.11-0.54c-0.34-0.23-0.68-0.53-1.02-0.88
		c-0.34-0.36-0.77-0.9-1.29-1.62c-0.53-0.72-1.24-1.77-2.14-3.15l-17.12-26.19l-4.6,3.01l-9.94,6.92l1.64,2.5
		c0.95-0.37,1.77-0.62,2.44-0.73c0.68-0.11,1.32-0.05,1.92,0.19c0.59,0.24,1.19,0.69,1.78,1.36c0.59,0.66,1.28,1.6,2.07,2.8
		l11.2,17.13c1.52,2.33,2.49,3.99,2.92,4.98c0.42,0.99,0.56,1.89,0.45,2.7c-0.11,0.81-0.67,1.77-1.66,2.88l1.59,2.43l17.98-11.75
		l-1.59-2.43C2563.2,1503.56,2562.52,1503.72,2561.96,1503.77z"/>
	<path d="M2587.99,1468.33c-1.66-0.85-3.56-1.31-5.69-1.38c-2.14-0.07-4.66,0.18-7.59,0.76c-3.21,0.63-5.47,0.93-6.76,0.9
		s-2.33-0.26-3.11-0.7c-0.79-0.43-1.48-1.11-2.1-2.04c-0.88-1.32-1.09-2.66-0.63-4.03c0.46-1.37,1.5-2.59,3.11-3.67
		c1.12-0.75,2.19-1.23,3.21-1.44c1.03-0.21,2.16-0.11,3.4,0.29c1.24,0.4,2.67,1.2,4.27,2.38l4.82-3.23l-5.7-8.52
		c-3.03,1.33-5.46,2.48-7.26,3.48c-1.8,1-3.6,2.09-5.38,3.28c-3.02,2.02-5.43,4.25-7.21,6.68c-1.78,2.43-2.77,4.87-2.96,7.33
		c-0.19,2.46,0.45,4.78,1.91,6.98c0.9,1.34,1.97,2.39,3.22,3.15c1.25,0.76,2.6,1.28,4.08,1.58c1.48,0.3,3.03,0.41,4.69,0.33
		c1.66-0.08,3.35-0.28,5.09-0.59c3.09-0.55,5.34-0.83,6.76-0.85c1.43-0.01,2.58,0.19,3.49,0.61c0.9,0.42,1.68,1.13,2.35,2.13
		c1.06,1.59,1.4,3.11,1.02,4.56c-0.38,1.45-1.49,2.8-3.32,4.02c-2.12,1.42-4.19,2-6.2,1.74c-2.01-0.26-4.05-1.3-6.12-3.13l-4.9,3.28
		l5.85,8.74c5.69-2.15,10.55-4.57,14.57-7.26c2.22-1.49,4.1-3.07,5.64-4.75c1.54-1.68,2.66-3.43,3.35-5.24
		c0.7-1.81,0.93-3.67,0.71-5.58c-0.22-1.92-0.99-3.86-2.32-5.84C2591.08,1470.51,2589.65,1469.18,2587.99,1468.33z"/>
	<path d="M2640.62,1450.34c-0.62,0.08-1.18,0.02-1.68-0.15c-0.49-0.17-1.01-0.49-1.54-0.94c-0.53-0.46-1.13-1.13-1.81-2.04
		c-0.68-0.9-1.38-1.89-2.12-2.95l-9.14-13.21c-2.02-2.92-3.99-5.07-5.93-6.44c-1.93-1.37-3.96-2.05-6.08-2.02
		c-2.12,0.02-4.52,0.95-7.17,2.79c-1.81,1.25-3.3,2.88-4.46,4.88c-1.17,2-2.17,4.74-3.02,8.21l-0.17,0.06l-14.3-20.67l-4.52,3.13
		l-9.67,7.45l1.65,2.39c1.15-0.51,2.03-0.8,2.66-0.88c0.63-0.07,1.2,0,1.71,0.23c0.52,0.23,1.06,0.64,1.65,1.22
		c0.58,0.58,1.22,1.35,1.93,2.3c0.72,0.95,1.79,2.46,3.22,4.54l19.53,28.23c1.07,1.54,1.87,2.75,2.39,3.61
		c0.53,0.87,0.87,1.59,1.03,2.18c0.15,0.59,0.22,1.11,0.2,1.57c-0.02,0.46-0.15,0.95-0.4,1.46c-0.26,0.51-0.68,1.1-1.29,1.77
		l1.65,2.39l17.74-12.27l-1.66-2.39c-0.79,0.3-1.47,0.48-2.02,0.55c-0.56,0.07-1.04,0.04-1.45-0.07c-0.4-0.11-0.77-0.28-1.12-0.5
		c-0.35-0.22-0.7-0.51-1.05-0.86s-0.79-0.88-1.34-1.59c-0.55-0.71-1.29-1.74-2.22-3.09l-9.72-14.05c-0.77-1.11-1.16-2.38-1.17-3.82
		s0.29-2.79,0.89-4.05c0.61-1.26,1.38-2.21,2.29-2.84c0.97-0.67,1.87-1.03,2.71-1.07c0.84-0.05,1.7,0.17,2.59,0.65
		c0.88,0.48,1.86,1.33,2.95,2.56c1.08,1.23,2.46,3.05,4.13,5.47l6.53,9.45c1.59,2.29,2.61,3.94,3.08,4.94c0.46,1,0.65,1.9,0.58,2.7
		c-0.07,0.8-0.58,1.72-1.53,2.77l1.66,2.39l17.55-12.15l-1.65-2.39C2641.94,1450.08,2641.24,1450.26,2640.62,1450.34z"/>
	<path d="M2669.83,1424.75c-0.97,1.73-2.36,3.24-4.17,4.54c-3.1,2.22-6.14,2.86-9.11,1.91c-2.98-0.95-6.03-3.57-9.14-7.87
		l22.67-16.27c-2.05-2.79-4.01-5.01-5.91-6.65c-1.84-1.6-3.74-2.83-5.73-3.68c-1.66-0.72-3.4-1.1-5.21-1.16
		c-1.82-0.06-3.72,0.25-5.71,0.93c-1.99,0.67-4.07,1.78-6.24,3.34c-3.51,2.52-6.06,5.44-7.67,8.78c-1.61,3.34-2.13,6.93-1.56,10.76
		c0.56,3.84,2.23,7.69,5,11.55c4.3,5.98,8.93,9.49,13.92,10.52c4.98,1.03,10.25-0.45,15.8-4.44c3.1-2.22,5.46-4.73,7.07-7.51
		c1.61-2.78,2.71-6.34,3.3-10.65l-5.16-1.07C2671.51,1420.7,2670.79,1423.03,2669.83,1424.75z M2640.99,1409.89
		c-0.24-2.64,0.54-4.61,2.38-5.93c1.91-1.37,3.93-1.47,6.07-0.3s4.56,3.55,7.28,7.13l-11.91,8.55
		C2642.52,1415.67,2641.24,1412.53,2640.99,1409.89z"/>
	<path d="M2721.3,1391.06c-0.71,0.03-1.35-0.12-1.93-0.45c-0.58-0.34-1.21-0.89-1.88-1.67c-0.68-0.78-1.68-2.06-3.01-3.85
		l-29.99-40.22l-4.41,3.29l-9.4,7.78l1.76,2.36c1.35-0.64,2.37-0.97,3.04-1c0.68-0.03,1.33,0.15,1.96,0.54
		c0.64,0.39,1.38,1.08,2.23,2.07c0.85,0.99,2.21,2.75,4.09,5.27l2.39,3.21c-1.65,0.64-3.01,1.27-4.11,1.89
		c-1.1,0.62-2.16,1.31-3.19,2.08c-3.6,2.68-6.15,5.68-7.65,9c-1.5,3.32-1.87,6.83-1.12,10.53c0.74,3.71,2.62,7.56,5.59,11.56
		c4.4,5.9,8.77,9.53,13.09,10.88c4.32,1.35,8.62,0.43,12.9-2.76c1.72-1.28,3.17-3.08,4.34-5.4c1.18-2.32,1.97-4.98,2.39-7.96
		l0.56-0.36l3.47,5.32l4.27-3.18l9.36-7.47l-1.76-2.36C2723,1390.71,2722.01,1391.03,2721.3,1391.06z M2704.15,1399.89
		c-0.63,1.25-1.44,2.25-2.45,3.01c-2.14,1.6-4.57,1.63-7.29,0.1c-2.71-1.53-5.8-4.61-9.25-9.24c-2.02-2.7-3.5-5.24-4.44-7.61
		c-0.95-2.37-1.29-4.47-1.02-6.3c0.27-1.83,1.13-3.28,2.59-4.37c2-1.49,4-1.9,6-1.23c2,0.67,4.07,2.44,6.21,5.31l8.76,11.75
		c1.02,1.36,1.58,2.82,1.68,4.38C2705.03,1397.24,2704.76,1398.65,2704.15,1399.89z"/>
	<path d="M2784.16,1341.68c-0.9-0.01-1.82-0.24-2.73-0.7c-0.92-0.45-2.32-1.34-4.19-2.66l-41.99-29.62l-9.21,7.3l15.98,49.72
		c0.7,2.1,1.13,3.81,1.29,5.1c0.17,1.29,0.13,2.45-0.12,3.47c-0.24,1.02-0.75,1.91-1.53,2.67l1.8,2.28l14.73-11.67l-1.8-2.28
		c-2.52,1.74-4.67,1.48-6.46-0.78c-0.77-0.97-1.38-1.96-1.86-2.99c-0.48-1.03-0.92-2.13-1.33-3.3l-1.45-4.18l14.73-11.67l3.6,2.64
		c1.43,1.04,2.57,1.94,3.42,2.69c0.85,0.74,1.56,1.48,2.12,2.19c0.77,0.96,1.07,1.94,0.92,2.93c-0.16,0.98-0.78,2.02-1.86,3.1
		l1.8,2.28l19.04-15.09l-1.81-2.28C2786.1,1341.41,2785.07,1341.69,2784.16,1341.68z M2743.39,1348.96l-8.49-24.89l20.9,15.05
		L2743.39,1348.96z"/>
	<path d="M2808.49,1317.48c-0.7,1.53-1.7,2.83-3.01,3.92c-1.81,1.49-3.67,2.21-5.59,2.14c-1.92-0.07-3.88-0.81-5.89-2.22
		c-2-1.41-4.1-3.44-6.28-6.08c-2.19-2.65-3.82-4.98-4.91-6.99c-1.09-2.01-1.77-3.77-2.05-5.28c-0.27-1.5-0.2-2.78,0.21-3.82
		c0.41-1.04,1.04-1.91,1.87-2.6c1.27-1.05,2.64-1.36,4.13-0.95c1.48,0.41,3.27,1.54,5.36,3.39l6.72-5.55l-6.76-8.18
		c-1.86,0.78-3.82,1.8-5.85,3.04c-2.04,1.25-3.97,2.62-5.8,4.14c-3.42,2.82-5.87,6.02-7.37,9.6c-1.5,3.58-1.84,7.3-1.02,11.17
		c0.82,3.87,2.76,7.66,5.82,11.37c4.54,5.5,9.3,8.62,14.26,9.38s9.89-0.89,14.8-4.95c2.45-2.02,4.31-4.35,5.61-7
		c1.29-2.65,2.16-5.97,2.57-9.97l-5.22-1C2809.72,1313.8,2809.19,1315.95,2808.49,1317.48z"/>
	<path d="M2851.34,1285.78c-0.45,0.13-0.88,0.18-1.31,0.14c-0.42-0.04-0.88-0.19-1.36-0.46c-0.48-0.26-1.09-0.77-1.85-1.51
		c-0.75-0.74-1.76-1.85-3.03-3.32l-11.19-13.01c-2.44-2.82-4.74-4.7-6.92-5.61s-4.38-1.03-6.6-0.35s-4.68,2.17-7.38,4.48
		c-1.04,0.9-2.03,1.86-2.96,2.9c-0.93,1.03-1.92,2.28-2.96,3.74c-1.04,1.46-2.04,3.02-2.97,4.68c-0.94,1.66-2.04,3.82-3.3,6.49
		l5.22,6.07l6.31-5.42c-1.22-2.01-1.96-3.76-2.21-5.27c-0.25-1.51-0.15-2.76,0.29-3.75c0.44-0.99,1.17-1.93,2.19-2.81
		c1.02-0.88,2.1-1.41,3.22-1.58c1.13-0.18,2.41,0.1,3.84,0.82c1.43,0.72,3.04,2.12,4.82,4.19l2.73,3.17
		c-6.12,6.12-9.98,11.49-11.58,16.14c-1.6,4.64-0.99,8.6,1.82,11.87c1.4,1.62,2.99,2.75,4.79,3.37c1.8,0.63,3.69,0.68,5.71,0.16
		c2.02-0.51,3.98-1.59,5.89-3.24c1.93-1.66,3.42-3.64,4.45-5.92c1.04-2.28,1.7-5.1,2-8.45l0.64-0.26l3.46,4.63l12.41-10.68
		l-1.89-2.2C2852.56,1285.31,2851.79,1285.64,2851.34,1285.78z M2834.94,1295.76c-0.44,1.33-1.18,2.44-2.2,3.31
		c-1.34,1.15-2.69,1.69-4.07,1.61c-1.38-0.07-2.66-0.8-3.84-2.18c-1.99-2.31-2.68-4.78-2.05-7.41c0.63-2.62,2.62-5.47,6-8.52
		l4.76,5.54c0.88,1.02,1.45,2.22,1.7,3.59C2835.48,1293.08,2835.38,1294.43,2834.94,1295.76z"/>
	<path d="M2890.25,1250.37c-0.7,0.1-1.36,0.01-1.96-0.27c-0.61-0.28-1.29-0.78-2.02-1.49c-0.74-0.71-1.86-1.9-3.36-3.55
		l-33.63-37.23l-4.08,3.69l-8.64,8.63l1.98,2.19c1.29-0.77,2.26-1.19,2.93-1.28s1.34,0.02,2.01,0.35c0.67,0.32,1.48,0.94,2.41,1.85
		c0.94,0.91,2.46,2.53,4.56,4.86l2.69,2.97c-1.58,0.79-2.89,1.55-3.92,2.26c-1.04,0.72-2.03,1.51-2.99,2.37
		c-3.33,3.01-5.59,6.23-6.78,9.68c-1.18,3.44-1.22,6.97-0.13,10.59c1.09,3.62,3.31,7.28,6.66,10.98c4.93,5.47,9.62,8.67,14.04,9.61
		c4.43,0.94,8.63-0.38,12.59-3.95c1.59-1.44,2.87-3.37,3.82-5.79c0.95-2.42,1.5-5.14,1.63-8.14l0.52-0.41l3.95,4.97l3.95-3.57
		l8.61-8.32l-1.98-2.19C2891.91,1249.87,2890.95,1250.28,2890.25,1250.37z M2874,1260.78c-0.5,1.3-1.22,2.38-2.16,3.23
		c-1.98,1.79-4.4,2.05-7.24,0.79c-2.84-1.27-6.2-4.05-10.08-8.34c-2.26-2.5-3.97-4.89-5.14-7.16c-1.16-2.27-1.69-4.33-1.6-6.17
		c0.1-1.84,0.81-3.38,2.16-4.6c1.85-1.67,3.81-2.27,5.86-1.79c2.05,0.48,4.28,2.05,6.68,4.7l9.82,10.88
		c1.14,1.26,1.84,2.66,2.08,4.21C2874.63,1258.06,2874.5,1259.48,2874,1260.78z"/>
	<path d="M2916.58,1220.67c-0.72,1.84-1.89,3.53-3.51,5.07c-2.76,2.63-5.68,3.68-8.76,3.15c-3.08-0.53-6.46-2.71-10.15-6.54
		l20.21-19.24c-2.41-2.49-4.66-4.41-6.76-5.77c-2.05-1.34-4.11-2.29-6.19-2.86c-1.75-0.48-3.53-0.62-5.32-0.43
		c-1.8,0.19-3.64,0.76-5.52,1.7c-1.88,0.94-3.79,2.33-5.72,4.17c-3.12,2.97-5.25,6.23-6.39,9.76s-1.16,7.16-0.06,10.88
		c1.09,3.72,3.28,7.3,6.55,10.74c5.08,5.33,10.15,8.17,15.23,8.5c5.07,0.33,10.09-1.86,15.04-6.57c2.76-2.63,4.75-5.44,5.97-8.42
		c1.21-2.98,1.81-6.65,1.8-11.01l-5.25-0.34C2917.68,1216.43,2917.29,1218.83,2916.58,1220.67z M2885.95,1209.93
		c-0.61-2.58-0.1-4.65,1.54-6.2c1.7-1.62,3.69-2,5.98-1.13c2.28,0.87,5.01,2.88,8.2,6.05l-10.62,10.1
		C2888.26,1215.44,2886.57,1212.5,2885.95,1209.93z"/>
	<path d="M2981.36,1160.89c-0.6,0.19-1.16,0.25-1.68,0.18c-0.52-0.08-1.09-0.29-1.69-0.63c-0.61-0.34-1.33-0.9-2.16-1.66
		c-0.84-0.76-1.72-1.59-2.64-2.49l-11.49-11.22c-1.93-1.89-3.75-3.34-5.46-4.37c-1.7-1.03-3.36-1.64-4.98-1.82s-3.19,0.05-4.71,0.72
		c-1.52,0.68-3.1,1.85-4.73,3.53c-1.66,1.7-2.85,3.72-3.58,6.07c-0.73,2.34-1.14,5.54-1.24,9.58c-1.67-0.77-3.24-1.17-4.7-1.2
		c-1.47-0.03-2.9,0.27-4.3,0.91c-1.41,0.64-2.87,1.74-4.38,3.29c-1.56,1.6-2.71,3.52-3.48,5.77c-0.76,2.25-1.18,5.2-1.26,8.85
		l-0.47,0.29l-4.07-4.9l-3.88,3.97l-8.17,8.88l2.14,2.09c1.19-0.8,2.13-1.27,2.81-1.4s1.35-0.08,2,0.16
		c0.65,0.24,1.36,0.7,2.16,1.37c0.79,0.67,1.97,1.77,3.52,3.29l12.94,12.64c2,1.94,3.3,3.36,3.93,4.23
		c0.62,0.87,0.96,1.72,1.02,2.54c0.06,0.82-0.26,1.86-0.97,3.14l2.08,2.03l14.72-15.09l-2.07-2.03c-1.16,0.72-2.14,1.05-2.96,0.98
		c-0.82-0.06-1.68-0.42-2.58-1.07c-0.9-0.65-2.34-1.94-4.31-3.87l-12.19-11.9c-0.99-0.96-1.63-2.15-1.93-3.57
		c-0.29-1.42-0.27-2.79,0.08-4.11c0.35-1.32,0.9-2.37,1.66-3.15c0.57-0.59,1.12-1.01,1.65-1.25c0.52-0.24,1.06-0.37,1.61-0.39
		c0.55-0.02,1.15,0.08,1.81,0.29c0.65,0.21,1.34,0.54,2.05,0.98c0.71,0.45,1.57,1.11,2.57,1.99c1.01,0.88,2.21,2,3.59,3.35
		l8.44,8.24c2.02,1.97,3.35,3.39,3.99,4.26c0.65,0.87,1.01,1.71,1.09,2.51c0.08,0.8-0.24,1.79-0.95,2.98l2.08,2.03l14.63-14.99
		l-2.08-2.03c-0.97,0.57-1.78,0.89-2.45,0.96c-0.66,0.07-1.31-0.03-1.93-0.32c-0.62-0.28-1.34-0.77-2.14-1.45
		c-0.81-0.69-1.93-1.73-3.35-3.12l-10.27-10.02c-1.24-1.21-2.09-2.12-2.57-2.72c-0.47-0.61-0.83-1.22-1.08-1.85
		c-0.25-0.63-0.38-1.28-0.42-1.97c-0.03-0.69,0.01-1.43,0.13-2.24c0.11-0.81,0.31-1.53,0.6-2.15c0.28-0.63,0.69-1.21,1.22-1.76
		c0.77-0.8,1.55-1.3,2.33-1.51c0.77-0.21,1.67-0.16,2.69,0.14c1.02,0.3,2.18,0.96,3.49,1.99c1.31,1.03,2.91,2.47,4.8,4.32l8.44,8.24
		c1.99,1.95,3.31,3.37,3.95,4.26c0.65,0.89,1.02,1.74,1.11,2.52c0.09,0.79-0.21,1.77-0.9,2.94l2.08,2.03l14.81-15.18l-2.08-2.03
		C2982.62,1160.39,2981.96,1160.7,2981.36,1160.89z"/>
	<path d="M3000.49,1139.51c-0.54,0.19-1.01,0.28-1.43,0.26s-0.82-0.1-1.21-0.24c-0.39-0.14-0.79-0.33-1.21-0.59
		c-0.42-0.26-0.97-0.67-1.66-1.24c-0.7-0.57-1.65-1.41-2.87-2.51l-23.16-21.04l-3.7,4.07l-7.88,9.2l2.21,2.01
		c0.83-0.6,1.55-1.04,2.18-1.32c0.63-0.28,1.26-0.38,1.9-0.29c0.64,0.08,1.33,0.37,2.07,0.87s1.64,1.22,2.71,2.19l15.15,13.76
		c2.07,1.88,3.42,3.24,4.08,4.09c0.65,0.85,1.02,1.68,1.11,2.5c0.09,0.82-0.2,1.89-0.89,3.21l2.15,1.95l14.45-15.9l-2.15-1.96
		C3001.64,1138.98,3001.02,1139.31,3000.49,1139.51z"/>
	<rect x="2949.89" y="1105.52" transform="matrix(0.6724 -0.7402 0.7402 0.6724 146.0436 2551.811)" width="12.06" height="10.78"/>
	<path d="M3022.69,1108.46c-0.43,1.62-1.2,3.08-2.32,4.37c-1.53,1.78-3.25,2.8-5.16,3.05c-1.9,0.25-3.96-0.14-6.17-1.2
		c-2.21-1.05-4.61-2.7-7.22-4.94c-2.6-2.24-4.61-4.26-6.03-6.06c-1.41-1.8-2.38-3.42-2.9-4.85c-0.52-1.44-0.67-2.71-0.44-3.81
		c0.23-1.1,0.7-2.06,1.41-2.88c1.07-1.25,2.37-1.79,3.9-1.64c1.53,0.16,3.49,0.97,5.87,2.44l5.68-6.6l-8.04-6.92
		c-1.7,1.08-3.46,2.41-5.26,3.98c-1.8,1.57-3.47,3.25-5.02,5.06c-2.89,3.35-4.78,6.92-5.65,10.7c-0.88,3.78-0.58,7.51,0.88,11.19
		c1.46,3.68,4.01,7.09,7.66,10.22c5.4,4.66,10.61,6.93,15.63,6.84c5.02-0.09,9.6-2.55,13.76-7.38c2.07-2.4,3.52-5.02,4.35-7.85
		c0.83-2.83,1.11-6.25,0.86-10.27l-5.31-0.1C3023.28,1104.62,3023.11,1106.83,3022.69,1108.46z"/>
	<path d="M3061.38,1066.14c-0.64,0.31-1.26,0.45-1.84,0.42c-0.59-0.02-1.25-0.23-1.98-0.6c-0.73-0.37-1.86-1.15-3.4-2.32l-11.2-8.54
		c1.2-1.37,2.66-3.19,4.38-5.46c2.99-3.92,4.9-7.63,5.71-11.15c0.81-3.51,0.61-6.83-0.63-9.95c-1.23-3.12-3.4-5.87-6.51-8.23
		c-4.38-3.35-8.75-4.36-13.1-3.03c-4.36,1.33-8.79,4.94-13.29,10.84l-15.51,20.32l2.3,1.76c0.91-0.71,1.7-1.2,2.38-1.48
		c0.67-0.28,1.34-0.36,1.99-0.25s1.38,0.42,2.16,0.93c0.79,0.51,1.74,1.19,2.83,2.02l30.16,23.02c1.12,0.86,2.02,1.6,2.7,2.23
		c0.68,0.63,1.17,1.25,1.46,1.86c0.29,0.61,0.38,1.27,0.26,1.98c-0.11,0.71-0.38,1.58-0.81,2.62l2.3,1.76l14.37-18.82l-2.31-1.76
		C3062.82,1065.23,3062.01,1065.84,3061.38,1066.14z M3039,1052.08l-19.7-15.03c0.63-0.92,1.57-2.2,2.82-3.83
		c1.53-2.01,3.09-3.42,4.67-4.24c1.59-0.82,3.35-1.02,5.3-0.59c1.94,0.43,4.13,1.57,6.55,3.42c2.45,1.87,4.15,3.69,5.08,5.46
		c0.94,1.77,1.22,3.59,0.83,5.48c-0.39,1.88-1.47,3.99-3.25,6.32L3039,1052.08z"/>
	<path d="M3095.36,1004.79c0.56,2.92,0.68,5.34,0.36,7.3c-0.33,1.95-1.12,3.84-2.38,5.68c-2.16,3.15-4.79,4.78-7.92,4.89
		c-3.12,0.12-6.88-1.31-11.28-4.29l15.79-23.01c-2.87-1.93-5.48-3.35-7.82-4.24c-2.28-0.88-4.49-1.39-6.65-1.52
		c-1.81-0.1-3.58,0.13-5.3,0.69c-1.72,0.56-3.4,1.5-5.04,2.81c-1.65,1.31-3.22,3.07-4.73,5.27c-2.44,3.56-3.85,7.18-4.23,10.87
		c-0.38,3.69,0.35,7.24,2.19,10.66c1.84,3.41,4.72,6.46,8.64,9.15c6.07,4.17,11.63,5.89,16.66,5.16c5.04-0.73,9.49-3.91,13.36-9.55
		c2.16-3.14,3.52-6.3,4.09-9.47s0.4-6.88-0.52-11.14L3095.36,1004.79z M3063.54,1007.91c-1.13-2.39-1.06-4.52,0.22-6.39
		c1.33-1.93,3.19-2.72,5.61-2.34c2.41,0.37,5.5,1.78,9.27,4.22l-8.29,12.09C3066.94,1012.84,3064.67,1010.31,3063.54,1007.91z"/>
	<path d="M3118.76,981.84c-0.86,0.2-1.82,0.1-2.88-0.31c-1.06-0.4-2.78-1.33-5.16-2.78l-12-7.3c-1.3-0.79-2.25-1.43-2.86-1.9
		c-0.61-0.47-1.16-1.02-1.65-1.65c-0.5-0.63-0.88-1.41-1.15-2.35c-0.27-0.94-0.38-1.84-0.31-2.71c0.06-0.87,0.26-1.58,0.6-2.13
		c0.7-1.15,1.65-1.84,2.85-2.05s2.65-0.09,4.37,0.37l4.14-6.81l-10.37-6.32c-1.35,1.48-2.49,2.99-3.42,4.52
		c-1.38,2.25-2.17,4.64-2.39,7.15c-0.22,2.51,0.18,5.34,1.22,8.48l-0.41,0.42l-5.36-3.98l-2.88,4.73l-5.97,10.48l2.55,1.56
		c0.99-1.05,1.8-1.72,2.43-2c0.64-0.28,1.29-0.38,1.98-0.29c0.68,0.09,1.49,0.38,2.41,0.85c0.93,0.48,2.32,1.28,4.17,2.41l15.45,9.4
		c2.39,1.45,3.97,2.53,4.78,3.24c0.8,0.71,1.32,1.46,1.57,2.24c0.24,0.79,0.17,1.88-0.24,3.28l2.48,1.51l11.28-18.53l-2.48-1.51
		C3120.54,980.99,3119.62,981.64,3118.76,981.84z"/>
	<path d="M3140.21,944.17c-0.75,0.28-1.59,0.3-2.5,0.08c-0.9-0.23-2.33-0.87-4.27-1.91l-23.83-12.92l4.04-7.47l-4.84-2.62
		l-4.05,7.47l-2.94-1.59c-2.45-1.33-4.29-2.47-5.53-3.42c-1.23-0.95-2.06-1.93-2.47-2.92c-0.42-0.99-0.32-2.04,0.28-3.15
		c0.47-0.85,1.18-1.36,2.13-1.52c0.96-0.16,2.27-0.08,3.92,0.25l2.85-5.26l-7.89-4.28c-1.29,1.53-2.55,3.41-3.75,5.63
		c-3.01,5.55-4.14,10.48-3.4,14.81c0.74,4.32,3.33,7.95,7.74,10.88c0.89,0.58,1.58,1.12,2.07,1.62c0.49,0.5,0.85,1.01,1.05,1.52
		c0.21,0.51,0.29,1.07,0.25,1.66c-0.03,0.6-0.29,1.55-0.77,2.86l2.67,1.45l2.55-4.72l23.84,12.92c1.96,1.06,3.28,1.91,3.95,2.54
		c0.68,0.63,1.1,1.3,1.28,2.02c0.18,0.71,0.13,1.77-0.17,3.18l2.55,1.38l10.44-19.27l-2.55-1.38
		C3141.85,943.17,3140.96,943.89,3140.21,944.17z"/>
	<path d="M3148.26,885.43c-6.56-3.01-12.29-3.64-17.2-1.92c-4.9,1.72-8.83,5.81-11.79,12.27c-1.3,2.86-2.11,5.69-2.41,8.5
		c-0.3,2.81,0,5.49,0.9,8.03c0.9,2.54,2.44,4.91,4.6,7.09c2.16,2.18,5.03,4.09,8.61,5.73c4.67,2.14,8.89,3.1,12.64,2.88
		c3.76-0.22,6.98-1.43,9.65-3.64c2.68-2.21,4.91-5.28,6.71-9.2c1.91-4.16,2.78-8.1,2.64-11.81c-0.14-3.71-1.41-7.1-3.8-10.16
		C3156.42,890.15,3152.9,887.55,3148.26,885.43z M3156.07,912.67c-1.17,2.56-3.45,3.83-6.85,3.81c-3.4-0.02-7.92-1.32-13.58-3.91
		c-3.6-1.65-6.44-3.25-8.5-4.81c-2.07-1.56-3.42-3.15-4.06-4.76c-0.65-1.62-0.56-3.34,0.27-5.15c1.13-2.48,3.42-3.71,6.83-3.67
		c3.42,0.03,8,1.36,13.74,3.99c2.37,1.09,4.46,2.18,6.26,3.3c1.8,1.11,3.24,2.27,4.34,3.47c1.1,1.2,1.8,2.43,2.08,3.71
		C3156.9,909.91,3156.72,911.26,3156.07,912.67z"/>
	<path d="M3174.79,865.02c-0.8,0.38-1.76,0.48-2.88,0.31c-1.12-0.17-3-0.72-5.63-1.63l-13.27-4.6c-1.44-0.5-2.5-0.92-3.19-1.25
		c-0.7-0.33-1.35-0.75-1.96-1.26c-0.62-0.51-1.16-1.19-1.62-2.05c-0.46-0.86-0.75-1.72-0.87-2.58c-0.12-0.86-0.08-1.6,0.14-2.21
		c0.44-1.27,1.22-2.14,2.34-2.61c1.13-0.46,2.57-0.65,4.34-0.56l2.62-7.53l-11.48-3.98c-1,1.73-1.8,3.44-2.39,5.14
		c-0.86,2.49-1.14,4.99-0.83,7.49c0.31,2.5,1.32,5.18,2.99,8.03l-0.31,0.5l-6.07-2.76l-1.82,5.24l-3.62,11.51l2.82,0.98
		c0.74-1.24,1.39-2.06,1.95-2.47c0.56-0.41,1.19-0.64,1.88-0.7c0.68-0.06,1.53,0.05,2.54,0.32c1.01,0.27,2.54,0.77,4.59,1.48
		l17.09,5.93c2.63,0.91,4.41,1.63,5.35,2.16c0.93,0.53,1.61,1.14,2.01,1.86c0.4,0.71,0.56,1.8,0.45,3.26l2.74,0.95l7.11-20.5
		l-2.74-0.95C3176.35,863.81,3175.58,864.65,3174.79,865.02z"/>
	<path d="M3161.86,779.58c0.52-0.61,1.28-1.08,2.29-1.42c1.01-0.33,2.35-0.45,4.01-0.34c1.66,0.1,3.79,0.38,6.39,0.82l11.63,1.97
		c2.75,0.47,4.64,0.88,5.68,1.26c1.04,0.37,1.82,0.85,2.34,1.44c0.52,0.59,0.83,1.57,0.93,2.93l2.86,0.49l3.55-20.92l-2.86-0.48
		c-0.34,0.74-0.7,1.37-1.08,1.87c-0.38,0.5-0.81,0.87-1.28,1.1s-1.05,0.38-1.75,0.44c-0.7,0.06-1.61,0.02-2.73-0.13
		c-1.12-0.15-2.32-0.33-3.59-0.54l-15.84-2.69c-2.66-0.45-4.98-0.62-6.97-0.49c-1.98,0.13-3.69,0.57-5.14,1.34
		c-1.44,0.77-2.59,1.86-3.46,3.27c-0.86,1.42-1.49,3.28-1.89,5.59c-0.4,2.34-0.23,4.69,0.51,7.03c0.73,2.34,2.21,5.2,4.43,8.59
		c-1.81,0.32-3.33,0.88-4.54,1.68c-1.22,0.8-2.23,1.87-3.02,3.19c-0.79,1.32-1.37,3.05-1.73,5.2c-0.37,2.2-0.23,4.44,0.42,6.72
		c0.65,2.28,1.99,4.95,4,8l-0.22,0.5l-6.14-1.71l-0.93,5.47l-1.67,11.95l2.95,0.5c0.53-1.34,1.03-2.26,1.52-2.76s1.06-0.83,1.73-1
		c0.67-0.17,1.52-0.21,2.56-0.1c1.04,0.1,2.63,0.34,4.77,0.7l17.83,3.02c2.75,0.47,4.63,0.88,5.64,1.25s1.77,0.87,2.29,1.51
		c0.51,0.64,0.84,1.68,0.98,3.13l2.87,0.48l3.52-20.78l-2.86-0.48c-0.54,1.25-1.16,2.08-1.87,2.49c-0.71,0.41-1.62,0.61-2.73,0.58
		s-3.03-0.27-5.75-0.73l-16.79-2.85c-1.36-0.23-2.57-0.84-3.62-1.84c-1.05-0.99-1.81-2.14-2.28-3.42c-0.47-1.29-0.61-2.46-0.43-3.53
		c0.14-0.81,0.35-1.46,0.65-1.97s0.66-0.91,1.11-1.24c0.44-0.33,0.99-0.59,1.65-0.79c0.66-0.2,1.41-0.32,2.25-0.35
		c0.84-0.04,1.93,0.02,3.25,0.17c1.33,0.15,2.95,0.39,4.86,0.71l11.63,1.97c2.78,0.47,4.68,0.88,5.71,1.24
		c1.02,0.35,1.8,0.83,2.32,1.44c0.52,0.61,0.83,1.61,0.93,2.99l2.86,0.49l3.51-20.66l-2.87-0.49c-0.47,1.02-0.96,1.75-1.46,2.18
		c-0.51,0.43-1.1,0.72-1.77,0.84c-0.68,0.13-1.54,0.14-2.6,0.03c-1.05-0.1-2.56-0.32-4.53-0.65l-14.15-2.4
		c-1.7-0.29-2.93-0.55-3.66-0.78c-0.74-0.23-1.38-0.53-1.95-0.91c-0.56-0.38-1.04-0.84-1.46-1.38c-0.41-0.55-0.8-1.19-1.17-1.92
		c-0.37-0.73-0.61-1.44-0.74-2.11c-0.12-0.67-0.12-1.39,0.01-2.14C3160.98,781.05,3161.34,780.19,3161.86,779.58z"/>
	<path d="M3193.31,710.99c-0.29,0.32-0.67,0.59-1.17,0.82c-0.5,0.23-1.27,0.43-2.32,0.6c-1.04,0.17-2.53,0.33-4.47,0.48l-17.11,1.33
		c-3.72,0.29-6.58,1.04-8.61,2.26c-2.02,1.22-3.42,2.92-4.2,5.12c-0.77,2.19-1.02,5.06-0.74,8.6c0.11,1.38,0.31,2.74,0.58,4.11
		c0.29,1.36,0.7,2.89,1.27,4.6c0.56,1.71,1.23,3.43,2.01,5.16c0.78,1.74,1.88,3.9,3.28,6.5l7.99-0.62l-0.65-8.29
		c-2.34-0.2-4.19-0.65-5.55-1.34c-1.36-0.69-2.32-1.5-2.86-2.45c-0.54-0.95-0.87-2.09-0.97-3.43c-0.1-1.35,0.1-2.53,0.63-3.54
		c0.53-1.01,1.5-1.88,2.94-2.61c1.43-0.73,3.5-1.2,6.22-1.41l4.17-0.32c1.32,8.55,3.37,14.84,6.17,18.88
		c2.8,4.03,6.35,5.88,10.65,5.55c2.14-0.17,3.98-0.79,5.55-1.87c1.57-1.08,2.73-2.58,3.51-4.51c0.77-1.93,1.06-4.15,0.87-6.67
		c-0.19-2.54-0.91-4.91-2.14-7.09c-1.22-2.18-3.1-4.38-5.63-6.6l0.17-0.67l5.78-0.05l-1.27-16.32l-2.89,0.22
		c-0.2,1.19-0.38,2.01-0.54,2.45C3193.82,710.3,3193.6,710.68,3193.31,710.99z M3193.7,732.72c0.14,1.76-0.23,3.17-1.11,4.24
		c-0.87,1.07-2.21,1.67-4.03,1.81c-3.04,0.24-5.44-0.67-7.19-2.73c-1.75-2.05-2.86-5.34-3.33-9.87l7.29-0.57
		c1.34-0.1,2.64,0.15,3.9,0.75s2.28,1.49,3.1,2.63C3193.14,730.13,3193.6,731.38,3193.7,732.72z"/>
	<path d="M3147.16,661.83c-1.67,1.01-2.97,2.2-3.91,3.55c-0.93,1.35-1.48,2.89-1.62,4.61c-0.15,1.72,0.17,3.72,0.94,6
		c0.53,1.58,1.3,3.01,2.3,4.26c1,1.26,2.16,2.39,3.47,3.4c1.32,1.01,3.03,2.12,5.14,3.33l0.04,0.54l-6.21,1.41l1.77,5.25l4.2,11.31
		l2.83-0.96c-0.17-1.43-0.16-2.48,0.03-3.15c0.19-0.67,0.54-1.24,1.05-1.7c0.51-0.47,1.24-0.9,2.21-1.3
		c0.96-0.4,2.47-0.95,4.53-1.65l17.14-5.79c2.64-0.89,4.49-1.42,5.55-1.58c1.06-0.16,1.97-0.08,2.73,0.24
		c0.76,0.32,1.54,1.08,2.35,2.3l2.76-0.93l-6.81-20.14l-2.75,0.93c0.13,1.41-0.01,2.47-0.44,3.19c-0.42,0.72-1.12,1.33-2.09,1.84
		c-0.97,0.51-2.78,1.22-5.41,2.11l-16.05,5.42c-1.31,0.44-2.67,0.47-4.08,0.08c-1.42-0.39-2.64-1.04-3.69-1.96
		c-1.04-0.92-1.73-1.91-2.09-2.96c-0.26-0.78-0.4-1.45-0.4-2c0-0.56,0.11-1.09,0.33-1.59c0.22-0.51,0.54-1.01,0.97-1.51
		c0.43-0.5,1.02-0.98,1.77-1.43c0.74-0.46,1.73-0.94,2.97-1.45s2.84-1.1,4.82-1.77l11.13-3.76c2.64-0.89,4.5-1.42,5.57-1.58
		c1.08-0.16,2-0.09,2.76,0.21c0.77,0.3,1.52,1.03,2.26,2.21l2.75-0.93l-6.83-20.22l-2.75,0.93c0.06,0.81,0.03,1.53-0.06,2.16
		c-0.1,0.62-0.3,1.14-0.61,1.57s-0.75,0.83-1.33,1.22c-0.58,0.38-1.41,0.78-2.46,1.18c-1.06,0.4-2.19,0.81-3.42,1.22l-15.26,5.16
		C3150.87,659.91,3148.83,660.82,3147.16,661.83z"/>
	<path d="M3145.18,631.88c-2.89,1.85-5.4,3.2-7.52,4.04c-2.13,0.84-3.96,1.3-5.48,1.4c-1.53,0.09-2.78-0.13-3.77-0.66
		c-0.99-0.54-1.77-1.26-2.36-2.17c-0.89-1.38-1.04-2.79-0.45-4.21c0.59-1.42,1.93-3.06,4.01-4.92l-4.7-7.34l-8.93,5.72
		c0.55,1.95,1.32,4,2.31,6.18c0.99,2.17,2.13,4.26,3.41,6.26c2.39,3.73,5.27,6.55,8.64,8.47c3.37,1.92,7.03,2.7,10.97,2.35
		c3.95-0.35,7.94-1.82,12-4.41c6-3.84,9.67-8.19,11.02-13.02c1.34-4.83,0.3-9.93-3.14-15.29c-1.7-2.67-3.8-4.8-6.28-6.41
		c-2.47-1.6-5.67-2.86-9.59-3.76l-1.62,5.06c2.71,0.7,4.79,1.49,6.22,2.37c1.43,0.88,2.61,2.03,3.53,3.47
		c1.27,1.98,1.75,3.91,1.45,5.81c-0.3,1.9-1.27,3.76-2.91,5.58C3150.34,628.2,3148.08,630.03,3145.18,631.88z"/>
	<path d="M3091.96,599.82c0.97,1.87,2.39,3.76,4.25,5.66c3.02,3.08,6.3,5.17,9.85,6.25c3.55,1.09,7.17,1.06,10.88-0.08
		c3.71-1.14,7.26-3.38,10.65-6.7c5.27-5.15,8.03-10.27,8.29-15.35c0.26-5.08-2-10.06-6.78-14.95c-2.67-2.73-5.5-4.68-8.5-5.85
		c-2.99-1.17-6.67-1.72-11.03-1.64l-0.27,5.26c2.96,0.01,5.37,0.37,7.22,1.06c1.85,0.7,3.56,1.84,5.11,3.43
		c2.67,2.73,3.76,5.63,3.26,8.72c-0.49,3.09-2.62,6.5-6.39,10.23l-19.52-19.94c-2.45,2.44-4.34,4.72-5.67,6.85
		c-1.31,2.06-2.23,4.14-2.78,6.22c-0.45,1.76-0.57,3.54-0.35,5.33C3090.41,596.12,3091,597.95,3091.96,599.82z M3098.76,596.83
		c0.83-2.29,2.81-5.05,5.94-8.28l10.25,10.48c-3.27,2.83-6.19,4.56-8.75,5.21c-2.57,0.65-4.65,0.16-6.23-1.45
		C3098.33,601.11,3097.93,599.12,3098.76,596.83z"/>
</g>
<circle id="Dot_4_" cx="305.08" cy="1923.5" r="13.47"/>
<g id="Arabic_1_">
	<polygon points="200.51,1856.79 213.54,1858.47 215.41,1842.6 202.15,1840.67 	"/>
	<polygon points="280.65,1727.69 271.14,1736.62 278.39,1744.03 269.44,1752.51 277.19,1760.64 286.53,1751.85 279.43,1744.45 
		288.34,1735.87 	"/>
	<polygon points="222.27,1637.49 233.33,1630.97 228.03,1622.19 238.62,1615.78 232.93,1606.11 221.68,1612.72 227.11,1621.55 
		216.52,1627.84 	"/>
	<path d="M316.72,1576.65c-0.51-0.27-1.46-0.4-2.85-0.36l-23.79,10.1l-24.48-13.14l-4.72-8.21c-3.39,1.89-6.51,2.46-9.34,1.71
		c-0.42-0.1-1.35-0.53-2.8-1.27c-1.45-0.74-3.77-1.97-6.94-3.67l2.11,16.34l11.81,2.07l33.64,18.06c-0.22,2.96-1.33,6.29-3.32,10
		c-1.32,2.46-7.45,8.98-7.45,8.98c-2.89-1.01-7.73-1.7-14.53-2.09c-6.8-0.39-12.36,0.32-16.7,2.12l9.48,13.02
		c1.75-1.06,4.68-1.92,8.78-2.56c4.1-0.64,6.59-0.81,7.47-0.51c1.2,0.42,1.68,0.98,1.43,1.7l-10.11,29.01l0,0l-0.71,2.04l-0.3,0.87
		h0l-0.24,0.68c-2.89-0.68-6.96-1.19-12.19-1.52c-6.92-0.41-11.62-0.21-14.13,0.59c-2.5,0.8-4.13,2.29-4.88,4.46
		c-1.18,3.37-0.79,7.07,1.16,11.08c1.96,4.01,5.2,8.25,9.76,12.71c2.72,2.95,4.84,5.31,6.37,7.08c0.98,0.85-2.79,21.68-2.79,21.68
		l-0.19,1.65c-3.04-0.34-7.92,0.05-14.63,1.17c-6.71,1.12-11.99,3.04-15.82,5.75l12.14,10.6c1.48-1.42,4.14-2.9,7.99-4.44
		s6.24-2.25,7.17-2.15c1.27,0.14,1.85,0.59,1.77,1.34c0,0-2.76,24.05-3.1,33.68s-0.12,14.29,0.41,21.94
		c0.53,7.64,2.07,19.62,2.41,22.31c0.34,2.69-0.28,4.75-0.28,4.75c-1.41,0.83-2.67,1.78-3.79,2.86c-1.87,1.72-3.4,3.62-4.59,5.71
		c-1.18,2.09-2.48,4.43-3.88,7.01l16.2,2.64c4.72-9.97,9.07-15.56,13.05-16.77c1.82-0.52,5.57,0.98,11.27,4.51
		c5.7,3.53,9.66,8.55,11.88,15.06c1.03,3.46,1.36,7.03,1.01,10.71c-0.35,3.68-0.77,6.56-1.24,8.67l-0.87,3.14
		c4.53-3.16,8.54-7.84,12.03-14.04c3.49-6.2,4.52-11.78,3.1-16.73c-1.89-6.57-8.34-11.88-19.37-15.94
		c-6.94-2.16-12.96-2.89-18.15-2.31c0,0-1.76-14.56-2.42-20.7c-0.65-6.13-0.74-16.92-0.47-24.79s4.88-46.14,4.88-46.14
		s-0.19-12.45-4.39-15.63c3.39-2.2,6.33-4.89,8.84-8.05c2.5-3.17,4.5-6.89,5.99-11.17c1.16-3.31,1.67-6.24,1.54-8.8l2.15-2.25
		l1.73-4.97l0,0l14.88-42.71c0,0,10.12-16.66,12.18-26.16c2.55-2.8,5.54-4.8,8.96-6.01c3.42-1.21,7.06-2.18,10.92-2.91
		C324.56,1584.11,321.54,1580.17,316.72,1576.65z M260.46,1673.72c-0.21,0.58-0.9,2.13-2.09,4.65c-1.18,2.52-2.64,4.82-4.35,6.92
		c-1.71,2.1-2.94,3.34-3.7,3.73c-0.75,0.39-1.34,0.51-1.77,0.37c-0.88-0.3-1.84-1.48-2.92-3.53c-1.07-2.05-1.71-3.91-1.92-5.61
		c-0.21-1.69-0.19-2.91,0.08-3.66c1.02-2.95,3.4-4.68,7.13-5.18c3.72-0.5,6.64-0.39,8.75,0.34
		C260.54,1672.05,260.81,1672.71,260.46,1673.72z"/>
	<polygon points="269.63,1516.76 276.29,1533.66 333.02,1568.99 325.01,1551.25 	"/>
	<polygon points="483.97,1399.06 471.07,1401.08 472.9,1411.29 460.73,1413.26 462.55,1424.34 475.23,1422.33 473.52,1412.23 
		485.71,1410.14 	"/>
	<polygon points="424.57,1520.57 411.67,1522.6 413.5,1532.81 401.33,1534.78 403.16,1545.86 415.83,1543.85 414.12,1533.74 
		426.31,1531.66 	"/>
	<polygon points="546.35,1233.68 559.19,1233.72 559.11,1223.47 571.49,1223.36 571.53,1212.14 558.48,1212.08 558.65,1222.45 
		546.33,1222.45 	"/>
	<path d="M608.11,1185.73l-6.98-0.91l-7.72-7.4l-2.78,13.6l8.45,7.15l25.34,31.27l-19.32,15.6c-1.97-2.34-5.78-5.41-11.43-9.21
		c-5.65-3.8-10.8-6.03-15.45-6.7l1.52,16.04c2.05-0.02,5,0.74,8.86,2.28s6.08,2.66,6.68,3.37c0.82,0.97,0.94,1.7,0.36,2.19
		l-25.86,21.78l0.07,0.08l-15.87,13.83l-0.02-0.02l-19.14,16.78c-5.6,5.23-10.14,7.55-13.62,6.94c-1.62-8.12-3.22-13.03-4.79-14.71
		c-1.52-1.63-2.99-2.62-4.42-2.96c-1.42-0.34-3.36-0.43-5.8-0.29c-2.45,0.15-4.86,0.68-7.22,1.6c-2.37,0.92-4.44,2.21-6.22,3.87
		c-3.29,3.08-5.72,6.76-7.3,11.06c-0.19,2.16,0.4,5.59,1.8,10.31c1.34,4.67,2.45,7.61,3.31,8.83c0.94-1.77,2.31-3.5,4.12-5.18
		c1.05-0.98,3.49-1.72,7.33-2.2c3.83-0.48,6.17-0.26,7.01,0.64c0.05,0.05,0.15,0.51,0.32,1.4c-3.35,6.13-6.69,10.77-10.04,13.9
		c-3.35,3.13-13.31,12.88-13.31,12.88l-42.19-42.57l-1.12,14.25l35.63,35.94l-18.01,13.61c-2.32-1.99-6.57-4.41-12.75-7.26
		c-6.19-2.85-11.63-4.23-16.32-4.15l4.06,15.59c2.02-0.35,5.05-0.07,9.11,0.83c4.05,0.9,6.43,1.66,7.13,2.26
		c0.96,0.83,1.2,1.53,0.7,2.1l-22.05,25.63l0,0l-0.47,0.54c-2.44-1.69-6.04-3.65-10.79-5.88c-6.28-2.92-10.74-4.46-13.36-4.63
		c-2.62-0.17-4.68,0.62-6.18,2.37c-2.33,2.71-3.33,6.29-2.98,10.73c0.35,4.45,1.82,9.58,4.43,15.4c1.45,3.74,2.57,6.71,3.34,8.92
		c0.6,1.15-3.59,6.94-12.55,17.36l-3.79,4.41c-8.38,9.74-12.24,16.57-11.59,20.5c0.51,3.62,1.89,7.69,4.14,12.23
		c2.24,4.54,4.06,7.38,5.46,8.54c0.51,0.4,3.03-0.25,7.53-1.96c8.29-4.06,12.62-5.93,12.99-5.62c0.88,0.76,0.13,3.42-2.25,7.99
		c-3.12,5.16-5.71,8.93-7.77,11.33c-13.31,15.47-24.35,18.98-33.12,10.53c-1.7-1.45-3.26-3.94-4.71-7.45
		c-1.44-3.51-2.57-6.32-3.37-8.44c-0.8-2.12-1.44-3.57-1.91-4.33l-0.42-0.15l-0.03,0.04c-0.7,1.34-0.05,5.11,1.98,11.29
		c3.78,9.37,8.13,16.18,13.09,20.43c5.57,4.8,11.34,6.53,17.3,5.2c5.97-1.32,11.34-4.76,16.12-10.31c6.36-7.4,11.09-15.6,14.19-24.6
		c3.1-9,3.85-14.85,2.26-17.53l-5.88-9.68l-0.97-0.37c-1.5-0.57-4.31,0.29-8.4,2.57c-8.54,4.35-13.23,6.16-14.06,5.44
		c-0.39-0.34,1.79-3.29,6.53-8.86l11.06-12.85l0,0l3.06-3.55c3.92-4.56,4.51-9.09,1.76-13.58c3.96-0.81,7.68-2.23,11.17-4.25
		c3.49-2.03,6.71-4.76,9.67-8.2c2.28-2.66,3.83-5.2,4.65-7.62l2.82-1.31l5.45-6.33l0,0l27.56-32.03l36.11-31.4
		c3.87-3.61,7.83-9.55,11.91-17.83l2.35-7.07c8.16,0.08,15.87-3.27,23.13-10.04l17.56-15.37l18.93-16.58l33.97-28.62l24.98-20.17
		l1.04-2.89l-31.74-39.16L608.11,1185.73z M422.73,1418.64c-0.4,0.47-1.62,1.66-3.65,3.56c-2.02,1.91-4.22,3.52-6.58,4.84
		c-2.36,1.32-3.96,2.03-4.81,2.12c-0.85,0.09-1.44-0.01-1.78-0.31c-0.7-0.61-1.18-2.06-1.42-4.35c-0.24-2.29-0.15-4.27,0.26-5.92
		c0.42-1.65,0.9-2.78,1.41-3.37c2.04-2.37,4.88-3.11,8.53-2.21c3.65,0.89,6.32,2.07,8.02,3.53
		C423.42,1417.13,423.42,1417.83,422.73,1418.64z"/>
	<polygon points="618.69,1157.46 619.19,1175.62 660.5,1228.17 659.01,1208.76 	"/>
	<path d="M708.44,1159.48c-2.18,1.49-4.56,2.86-7.14,4.12c-4.53,1.68-7.69,1.3-9.48-1.13c-0.61-0.83-0.82-1.7-0.62-2.62
		c0.19-0.91,0.67-1.96,1.43-3.14c0.76-1.18,1.74-2.47,2.94-3.87s3.83-2.85,7.86-4.33c1.86-0.31,3.28-0.03,4.26,0.82l-1.75-14.34
		c-2.21-1.78-5.25-1.25-9.12,1.61c-5.59,3.95-8.93,9.02-10.03,15.22c-0.86,10.63,0.14,17.88,2.99,21.75
		c0.7,0.94,2.78,1.68,6.26,2.23c0.59-0.01,2.3,0.22,5.13,0.7c-0.31,0.57-0.47,1.5-0.49,2.8s0.03,2.68,0.17,4.13
		c0.13,1.46,0.58,2.98,1.32,4.57s1.29,2.61,1.64,3.08c0.24,0.33,0.66,0.52,1.24,0.56c1.02-3.14,1.91-5.75,2.67-7.83
		c0.77-2.08,1.48-4.01,2.14-5.78c0.66-1.77,1.38-3.43,2.15-4.98c0.77-1.56,1.76-3.2,2.95-4.94c1.99-2.92,5.59-7.39,10.79-13.41
		l-3.16-11.57L708.44,1159.48z"/>
	<polygon points="715.88,1085.2 715.56,1103.37 754.46,1157.73 753.85,1138.27 	"/>
	<path d="M803.05,1110.19c-6.62-9.54-13.44-16.89-20.46-22.06c-5.93-4.38-11.06-7.08-15.43-8.12l1.73,14.87
		c3.62,0.75,7.67,2.56,12.17,5.42c5.66,4.06,8.98,6.79,9.96,8.21c0.33,0.48-1.35,2.65-5.07,6.53c-1.82,2.02-3.37,3.55-4.66,4.59
		c-1.28,1.04-2.5,1.96-3.66,2.76c-2,1.39-4.31,2.36-6.9,2.9c-1.98,0.29-4.06-1.05-6.23-4.01l-2.48-2.93
		c-0.07,0.01-0.14,0.03-0.19,0.08c-0.31,0.22-0.34,0.81-0.08,1.78c0.26,0.97,0.99,2.74,2.19,5.32c1.2,2.57,2.15,4.4,2.86,5.48
		c0.7,1.08,1.22,1.86,1.56,2.33c2.61,3.88,5.01,5.74,7.21,5.6c2.89,0.38,6.05-0.56,9.47-2.81c3.22-2.23,6.52-5.19,9.9-8.88
		c2.02-2.2,4.06-4.43,6.09-6.68c2.04-2.25,3.34-3.74,3.9-4.46c0.56-0.73,0.51-1.72-0.17-2.99
		C804.1,1111.84,803.52,1110.87,803.05,1110.19z"/>
	<path d="M769.45,1058.82c0.99,1.49,3.25,2.23,6.8,2.23c-0.4,2.2,0,4.2,1.2,6c0.15,0.23,0.35,0.37,0.58,0.42l2.81-9.29
		c0.83-2.16,2.62-4.95,5.34-8.36l-1.49-4.95l-7.63,9.01c-0.23,0.27-0.56,0.56-0.99,0.84c-1.14,0.76-2.19,1.19-3.14,1.28
		c-0.95,0.09-1.57-0.07-1.85-0.5c-0.46-0.69-0.69-1.46-0.7-2.32c-0.01-0.86,0.15-1.73,0.49-2.61c0.34-0.89,0.83-1.74,1.46-2.55
		c0.64-0.81,1.36-1.49,2.16-2.01c1.83-1.22,3-1.64,3.49-1.27l-1.3-5.14c-0.82,0.26-1.68,0.68-2.57,1.27
		c-1.49,0.99-2.74,2.22-3.76,3.7c-1.02,1.48-1.75,3.04-2.18,4.69c-0.43,1.65-0.56,3.31-0.38,4.98
		C767.99,1055.92,768.54,1057.44,769.45,1058.82z"/>
	<path d="M872.79,999.22l-6.83-1.7l-6.84-8.23l-4.3,13.2l7.58,8.06l21.64,33.94l-22.24,14c-4.41,2.93-8.11,3.76-11.07,2.52
		c-3.9-1.71-8.12-5.83-12.66-12.38l-21.37-30.73l-4.22,11.83l3.96,5.23l8.75,13.19c1.93,2.92,3.66,5.86,5.17,8.82
		c3.01,5.84,4.68,11.76,5.03,17.75c0.12,2.6-0.06,5.07-0.54,7.4c-4.15-6.89-7.26-11.57-9.31-14.04c-4.12-4.9-9.89-8.16-17.32-9.79
		c-6.82-1.58-11.97-1.21-15.47,1.11c-1.57,1.04-2.37,2.37-2.37,3.98c-0.02,3.02,0.61,5.49,1.88,7.41c1.88,2.84,5,4.64,9.35,5.42
		l5.94,0.2l1.87-4.46c1.43,0.04,3.81,0.56,7.16,1.56c3.91,1.24,6.77,2.56,8.57,3.97c3.61,2.84,6.23,6.63,7.85,11.37
		c-2.6,6.09-5.4,11.47-8.41,16.15c-0.95,1.49-2.82,4.27-5.64,8.32c-2.82,4.05-4.45,6.42-4.91,7.09c1.73-0.62,4.39-2.11,7.97-4.48
		c12.43-8.24,19.1-15.07,20.01-20.51c0.91-5.43,0.54-12.7-1.14-21.82c-1.42-8.17-2.21-12.2-2.39-12.08l3.58,3.63
		c2.92,2.97,5.59,5.32,8.02,7.05c3.67,2.6,7.01,3.92,10.04,3.95c3.03,0.03,5.85-0.82,8.45-2.55l31.14-19.72l1.36-2.76l-27.1-42.5
		L872.79,999.22z"/>
	<path d="M957,1017.4c2.88-1.34,5.45-2.64,7.71-3.89c2.25-1.25,4.38-2.35,6.37-3.31l-2.61-17.34c-3.65,0.93-6.32,0.91-7.98-0.05
		c-1.66-0.96-3.7-2.3-6.11-4.01c-3.94-2.2-7.66-4.2-11.17-6.01c-3.82-1.67-7.03-1.7-9.65-0.12c-2.91,1.76-5.02,5.37-6.34,10.83
		c-1.01,8.89-1.22,13.84-0.65,14.85l1.01,1.86l8.45-13.8l17.06,6.48c-0.4,0.08-0.92,0.31-1.57,0.7c-1.8,1.09-5.1,3.13-9.93,6.14
		s-7.7,5.28-8.61,6.84c-1.56,2.79-0.63,8.68,2.8,17.65c0.67,1.12,1.79,2.53,3.33,4.25c1.54,1.72,3.66,3.67,6.35,5.86
		c3.5,3.46,7.04,7.28,10.62,11.46c3.58,4.18,7.22,8.76,10.92,13.75c-0.13-5.39-1.16-9.66-3.08-12.84c-1.51-2.62-3.44-5.47-5.8-8.54
		c-2.36-3.07-5.24-6.38-8.64-9.95c-2.51-2.42-4.25-4.13-5.22-5.13c-0.97-1-1.61-1.64-1.95-1.92l-1.38-1.39
		C939.82,1027.88,945.17,1023.76,957,1017.4z"/>
	<polygon points="1021.27,908.58 1033.45,910.76 1035.56,899.73 1022.74,897.27 1021,907.49 1008.89,905.22 1006.84,916.26 
		1019.45,918.67 	"/>
	<path d="M1195.39,853.97c-4.74-5.06-8.29-8.16-10.65-9.3c-2.37-1.14-4.57-1.18-6.62-0.13c-3.18,1.64-5.44,4.58-6.78,8.83
		c-1.35,4.25-1.91,9.56-1.68,15.94c-0.06,4.01-0.14,7.18-0.25,9.52c0.12,1.29-5.94,5.09-18.19,11.4l0.04,0.08l-18.53,9.79
		l-0.01-0.01l-1.91,1.02l-0.06,0.03v0l-20.89,11.11c-0.32-0.65-0.66-1.34-1.02-2.08c-10.09-3.68-19.1-5.81-27.03-6.4
		c-7.93-0.59-13.46-1.04-16.61-1.36l21.41-24.84l-2.62-10.14c-18.93,21.08-29.01,34.32-30.23,39.73c-0.31,1.23,0.12,2.89,1.27,5
		c0.94,1.72,2.69,2.8,5.24,3.24c2.77,0.76,4.61,1.23,5.55,1.43c0.44-1.42,0.72-2.23,0.83-2.46c1.15-0.63,6.35-0.42,15.61,0.61
		c9.59,0.97,14.65,1.96,15.2,2.95c0.32,0.57-1.64,2.01-5.85,4.32l-29.12,16c-1.51-2.66-4.68-6.38-9.53-11.16
		c-4.86-4.78-9.5-7.92-13.95-9.44l-1.47,16.05c2.02,0.36,4.78,1.65,8.29,3.87c3.51,2.22,5.49,3.74,5.94,4.54
		c0.63,1.11,0.61,1.85-0.05,2.22l-29.72,16.73c-3.56-5.08-8.4-9.6-14.49-13.56c-7.24-4.76-12.83-5.99-16.78-3.68
		c-3.41,1.99-5.22,7.01-5.41,15.04c0.18,9.17,2.78,18.04,7.79,26.61c1.65,2.82,5.55,3.58,11.72,2.28c6.16-1.3,11.5-3.26,16.01-5.9
		c0.26-0.16,0.54-0.32,0.81-0.5c0.28-0.18,0.56-0.38,0.88-0.6c0.59,4.63,0.45,8.9-0.42,12.81c-0.87,3.91-3.14,8.44-6.8,13.59
		c-3.66,5.15-7.04,8.64-10.14,10.49c-2.95,1.69-6.76,3.14-11.43,4.35c-4.67,1.06-8.7,1.41-12.1,1.04c3.91,2.88,7.44,4.67,10.58,5.34
		c3.15,0.67,6.86,1.18,11.17,1.53c7.41,0.28,13.04-0.7,16.9-2.95c8.21-4.8,12.29-14.55,12.22-29.23c0.29-7.61-0.78-14.95-3.19-22.01
		l43.32-24.44l45.55-24.97l20.21-10.74v0l22.29-11.77l-0.03-0.06l4.98-2.57c5.34-2.76,7.58-6.73,6.72-11.93
		c3.97,0.73,7.96,0.82,11.95,0.24c4-0.57,8.01-1.9,12.04-3.97c9.68-4.99,12.4-11.61,8.15-19.85
		C1203.15,862.94,1200.12,859.03,1195.39,853.97z M1011.61,968.84c-1.27,0.75-4.26,1.81-8.95,3.17c-4.69,1.37-7.47,1.33-8.32-0.13
		c-0.43-0.74-0.75-1.63-0.96-2.66c-0.2-1.03-0.26-2.06-0.15-3.08c0.1-1.01,0.34-1.93,0.72-2.75c0.38-0.82,0.89-1.42,1.54-1.8
		c1.22-0.71,2.7-1.09,4.46-1.15c1.76-0.05,4.26,0.62,7.5,2c3.24,1.39,5.2,2.64,5.89,3.75
		C1013.82,967.01,1013.25,967.88,1011.61,968.84z M1192.84,870.41c-0.55,0.28-2.12,0.93-4.71,1.94c-2.6,1.01-5.23,1.68-7.92,2.02
		c-2.69,0.34-4.43,0.39-5.25,0.16c-0.81-0.23-1.33-0.55-1.53-0.95c-0.42-0.82-0.32-2.34,0.31-4.56s1.45-4.02,2.47-5.39
		c1.01-1.37,1.87-2.24,2.57-2.6c2.78-1.43,5.69-1.05,8.74,1.15c3.04,2.2,5.08,4.29,6.1,6.28
		C1194.05,869.27,1193.79,869.93,1192.84,870.41z"/>
	<path d="M1273.33,789.18l-0.13-9.45l-6.59-2.47l-5.85-8.96l-5.78,12.62l6.61,8.88l25.48,52.37c0.09,2.48-0.42,4.39-1.54,5.74
		c-1.12,1.35-2.6,2.94-4.45,4.77c-1.84,1.83-5.15,4.16-9.93,6.98c-3.21,1.56-7.14,2.4-11.78,2.52c-4.81-0.38-8.7-3.62-11.68-9.74
		c-0.93-1.76-1.82-4.88-2.67-9.37c-0.84-4.48-1.32-6.89-1.42-7.22s-0.3-0.79-0.58-1.38c-0.37,0.18-0.67,0.76-0.9,1.73
		c-0.24,0.97-0.25,4.71-0.06,11.2c0.2,6.5,1.75,12.72,4.66,18.69c2.04,4.2,5.74,7.65,11.1,10.33c5.36,2.69,11.94,2.13,19.76-1.68
		c7.35-3.58,13.13-9.22,17.33-16.91c4.29-7.36,4.65-14.72,1.07-22.07L1273.33,789.18z"/>
	<polygon points="1292.91,781.22 1317.12,832.43 1322.96,819.47 1299.23,769.28 	"/>
	<path d="M1279.54,776.94c0.38-1.05,0.8-2.13,1.27-3.22c1.01-1.88,2.96-3.55,5.85-4.99c3.65-1.84,5.92-4.36,6.81-7.55
		c0.51-2.22,0.35-4.21-0.49-5.98c-0.31-0.65-0.54-0.94-0.7-0.87l-1.16,3.23c-0.97,2.13-3.28,4.12-6.94,5.96
		c-6.37,3.09-8.41,7.05-6.12,11.9C1278.69,776.72,1279.18,777.23,1279.54,776.94z"/>
	<polygon points="1476.33,695.7 1490.2,697.64 1491.79,688.17 1477.95,686.04 	"/>
	<polygon points="1506.78,680.6 1493.39,678.74 1491.79,688.17 1505.25,690.22 	"/>
	<polygon points="1488.22,672.18 1475.9,670.49 1474.37,679.83 1487.03,681.55 	"/>
	<path d="M1517.76,694.4l-5.48,13.55c2.66,1.91,5.31,5.2,7.95,9.87c0.25,0.61,0.07,1.31-0.54,2.12c-0.61,0.81-1.98,1.74-4.12,2.77
		c-5.52,2.29-10.91,2.8-16.17,1.52c0.21-4.51,0.03-7.94-0.56-10.28s-1.21-4.32-1.89-5.94c-0.31-0.76-0.77-1.53-1.34-2.29
		l-5.57,14.54c0.49,0.39,1.13,1.57,1.92,3.55c0.81,2.38,1.02,4.1,0.63,5.15c-0.42,1.22-1.59,2.22-3.49,3.01l-13.42,5.57
		c-4.7,1.95-7.77,2.99-9.21,3.1s-2.29-0.01-2.56-0.39c-0.12-0.29-0.2-0.89-0.25-1.82c-0.05-0.93-0.19-2.1-0.41-3.54
		c-0.22-1.43-0.54-3.02-0.95-4.77c-0.41-1.75-0.85-3.17-1.31-4.29c-0.49-1.28-0.98-2.36-1.46-3.24c-0.47-0.88-0.9-1.58-1.26-2.1
		l-5.17,12.81c0.79,1.09,1.7,2.88,2.74,5.39c1,2.41,1.36,4.01,1.09,4.79c-0.22,1.43-14.29,7.93-14.29,7.93l-19.36,8.42l-0.01-0.01
		l-23.89,10.5c-3.53-6.32-7.34-11.67-11.43-16.05c-5.03-5.38-9.6-8.98-13.69-10.79l-1.01,14.93c3.42,1.4,7.08,3.91,10.98,7.54
		c4.83,5.02,7.59,8.32,8.3,9.88c0.24,0.53-1.82,2.37-6.17,5.5c-2.16,1.65-3.96,2.87-5.41,3.66c-1.45,0.79-2.83,1.47-4.11,2.05
		c-2.22,1.01-4.66,1.54-7.31,1.6c-2-0.08-3.79-1.77-5.4-5.08l-1.9-3.33c-0.08,0-0.15,0.01-0.21,0.04c-0.34,0.16-0.48,0.73-0.4,1.74
		c0.08,1,0.47,2.88,1.18,5.63c0.72,2.75,1.32,4.72,1.82,5.91c0.5,1.19,0.87,2.05,1.11,2.58c1.86,4.29,3.88,6.56,6.07,6.82
		c2.78,0.9,6.05,0.55,9.82-1.04c3.57-1.61,7.35-3.92,11.35-6.93c2.39-1.8,4.79-3.61,7.2-5.46c2.41-1.84,3.95-3.07,4.63-3.67
		c0.03-0.01,0.07-0.05,0.12-0.11l23.05-10.13l0,0.01l23.82-10.74c4.38-1.82,7.86-4.68,10.44-8.58c5.13,0.88,11.8-0.38,20.02-3.8
		c6.25-2.6,10.03-4.6,11.35-6c3.11-2.89,5.24-5.43,6.38-7.62l0.02,0.05c0.02,0.06,0.24,0.09,0.64,0.07
		c2.38,0.09,5.64-0.03,9.78-0.35c4.15-0.33,9.29-1.6,15.44-3.82c1.81-0.75,3.47-1.56,4.99-2.43c1.52-0.87,2.37-1.89,2.55-3.04
		c0.17-2.01-1.94-8.27-6.35-18.79C1524.3,703.75,1521.19,698.37,1517.76,694.4z"/>
	<polygon points="1526.69,667.2 1551.67,729.21 1555.66,710.15 1531.27,649.63 	"/>
	<path d="M1604.53,683.13c-1.39-2.56-3.03-4.67-4.93-6.35c-1.89-1.68-3.94-3.01-6.13-3.99c-2.2-0.98-4.65-2.06-7.35-3.21
		l-1.11,16.38c10.37,3.76,16.34,7.56,17.92,11.41c0.69,1.76-0.15,6.44-2.5,14.04c-2.35,7.6-6.66,12.82-12.94,15.65
		c-1.75,0.72-3.33,1.26-4.76,1.62c-1.43,0.36-2.87,0.58-4.31,0.66c-1.45,0.09-2.98,0.06-4.6-0.08c-1.62-0.14-3.5-0.34-5.64-0.61
		l-3.21-0.57c3.57,4.21,8.61,7.76,15.11,10.66c6.51,2.89,12.16,3.4,16.95,1.52c6.37-2.5,10.99-9.58,13.86-21.27
		c2.08-8.72,1.08-18.29-3.01-28.71C1607.04,688.07,1605.91,685.69,1604.53,683.13z"/>
	<polygon points="1665.13,614.82 1648.92,614.35 1648.2,627.46 1664.17,628.18 	"/>
	<path d="M1736.41,621.73c-5.09-6.58-9.36-10.51-12.79-11.77l-3.74,15.75c0.61-0.22,2.73,1.27,6.35,4.45
		c3.62,3.19,5.59,5.22,5.89,6.09c0.42,1.2,0.28,1.92-0.44,2.17l-28.59,10.09l-0.03-0.09l-3.53,1.3c-3.85-8.8-8.54-14.92-14.06-18.38
		l-3.72,15.26c1.2,0.69,3.12,2.52,5.74,5.47c2.62,2.95,4.65,5.65,6.08,8.09c1.43,2.44,2.41,4.4,2.96,5.89
		c0.61,1.65,1.02,3.16,1.23,4.54c-0.06,0.94-1.7,2.86-4.91,5.76c-7.97,6.89-15.15,11.5-21.54,13.85c-6.07,2.23-11,2.32-14.81,0.28
		c-3.81-2.04-6.57-5.49-8.28-10.35c-1.32-3.39-1.87-8.54-1.65-15.45c0.22-6.91,0.49-11.37,0.81-13.39
		c-1.22,0.96-2.41,3.46-3.59,7.49c-1.17,4.04-1.67,8.65-1.5,13.84c0.17,5.19,1.25,10.5,3.24,15.91c1.8,4.9,3.63,8.76,5.49,11.57
		c1.86,2.81,3.93,4.8,6.23,5.97c2.3,1.17,4.9,1.59,7.79,1.26c2.9-0.33,6.28-1.21,10.15-2.63c10.12-3.83,19.46-11.59,28.02-23.26
		c2.35-3.65,2.81-9.03,1.36-16.15l0.93-0.34l0.02,0.05l41.02-14.47c2.1-0.74,1.81-4.94-0.89-12.58
		C1744.23,633.83,1741.14,628.44,1736.41,621.73z"/>
	<polygon points="1725.52,681.64 1741.49,682.57 1742.62,669.22 1726.42,668.54 	"/>
	<polygon points="1805.86,566.27 1789.68,565.23 1788.5,578.31 1804.44,579.59 	"/>
	<path d="M1825.62,583.49l-4.26,15.12c1.18,0.73,3.03,2.62,5.55,5.66c2.52,3.04,4.45,5.81,5.79,8.3c1.34,2.49,2.26,4.49,2.76,5.99
		c0.54,1.67,0.9,3.19,1.06,4.59c-0.09,0.93-1.8,2.79-5.11,5.58c-8.21,6.6-15.55,10.96-22.02,13.08c-6.14,2.01-11.07,1.93-14.81-0.24
		c-3.73-2.17-6.37-5.72-7.91-10.64c-1.2-3.44-1.57-8.61-1.1-15.51c0.47-6.9,0.89-11.35,1.29-13.36c-1.26,0.92-2.54,3.37-3.85,7.37
		c-1.32,3.99-1.98,8.58-1.99,13.78s0.88,10.53,2.68,16.02c1.63,4.96,3.32,8.88,5.08,11.76c1.75,2.87,3.76,4.94,6.02,6.19
		c2.25,1.25,4.84,1.76,7.74,1.53c2.91-0.23,6.32-0.99,10.24-2.27c10.25-3.47,19.86-10.89,28.82-22.26
		c3.64-5.21,3.35-14.25-0.87-27.11C1836.97,595.61,1831.93,587.75,1825.62,583.49z"/>
	<polygon points="1841.53,554.12 1861.59,617.89 1867.06,599.2 1847.48,536.96 	"/>
	<path d="M2127.42,521.68c-5.32-0.14-9.89-1-13.74-2.59c-3.84-1.59-7.85-3.55-12.02-5.85c-10.77-5.7-19.73-7.64-26.89-5.82
		c-6.83,1.74-11.28,4.67-13.34,8.82c-0.86,1.38-2.05,4.79-3.58,10.21c5.99-4.04,10.57-6.46,13.74-7.27
		c4.06-1.03,8.19-0.77,12.38,0.79c3.95,1.44,7.73,3.18,11.34,5.2c3.62,2.02,5.48,3.24,5.58,3.64l-57.47,14.5
		c-1.03-2.79-2.85-6.45-5.46-11c-3.47-5.99-6.23-9.81-8.29-11.46c-2.05-1.64-4.18-2.18-6.42-1.61c-3.47,0.88-6.33,3.24-8.6,7.08
		c-2.26,3.84-4,8.89-5.21,15.15c-0.96,3.9-1.75,6.97-2.39,9.22c-0.17,1.28-20.1,7.72-20.1,7.72l-20.39,5.69l0-0.01l-22.3,6.38
		l0-0.01l-25.17,7.31c-2.68-6.73-5.77-12.52-9.25-17.39c-4.29-5.99-8.35-10.14-12.18-12.47l-2.93,14.67
		c3.21,1.83,6.51,4.79,9.91,8.9c4.14,5.6,6.46,9.23,6.96,10.87c0.17,0.56-2.11,2.11-6.83,4.65c-2.36,1.36-4.31,2.33-5.84,2.93
		c-1.54,0.59-2.99,1.1-4.34,1.5c-2.33,0.71-4.82,0.92-7.45,0.64c-1.97-0.34-3.53-2.25-4.7-5.74l-1.45-3.55
		c-0.08-0.01-0.15-0.01-0.21,0.01c-0.36,0.11-0.57,0.67-0.63,1.67c-0.06,1.01,0.09,2.92,0.45,5.74c0.35,2.82,0.7,4.85,1.04,6.09
		c0.34,1.25,0.6,2.15,0.77,2.7c1.29,4.49,3,7.01,5.14,7.55c2.64,1.25,5.93,1.33,9.87,0.24c3.74-1.14,7.79-2.94,12.15-5.41
		c2.6-1.47,5.22-2.96,7.85-4.48c2.63-1.51,4.31-2.53,5.06-3.04c0.03-0.01,0.08-0.04,0.13-0.09l24.37-7.09l21.92-6.27l0,0l24.09-7.43
		l5.37-1.37c5.83-1.48,8.91-4.85,9.24-10.11c3.7,1.61,7.57,2.59,11.59,2.93c4.02,0.34,8.23-0.05,12.62-1.16
		c3.4-0.86,6.13-2.05,8.19-3.57l3.06,0.55l88.46-22.5L2127.42,521.68z M2031.79,547.75c-0.6,0.15-2.28,0.43-5.02,0.83
		c-2.76,0.4-5.48,0.46-8.17,0.19c-2.69-0.27-4.41-0.61-5.16-1.03s-1.17-0.84-1.28-1.27c-0.23-0.9,0.22-2.36,1.34-4.38
		c1.11-2.02,2.32-3.58,3.62-4.69c1.29-1.11,2.32-1.76,3.09-1.96c3.03-0.77,5.78,0.26,8.26,3.09c2.47,2.83,3.99,5.33,4.54,7.49
		C2033.23,546.91,2032.82,547.49,2031.79,547.75z"/>
	<polygon points="2177.41,465.56 2182.74,455.68 2171.26,449.48 2166.52,458.71 2155.66,452.9 2150.38,462.82 2161.68,468.9 
		2166.45,459.83 	"/>
	<path d="M2485.77,477.47c0.72-1.88,0.42-8.49-0.91-19.81c-0.8-7.31-2.3-13.35-4.51-18.11l-9.01,11.51
		c2.02,2.57,3.67,6.46,4.92,11.68c0.07,0.65-0.3,1.28-1.11,1.89c-0.81,0.61-2.39,1.12-4.73,1.53c-5.94,0.68-11.26-0.32-15.95-3
		c1.45-4.28,2.21-7.63,2.3-10.04c0.08-2.41,0.03-4.49-0.17-6.23c-0.1-0.82-0.31-1.68-0.66-2.57l-9.37,12.43
		c0.37,0.51,0.65,1.83,0.86,3.95c0.12,2.51-0.15,4.22-0.81,5.12c-0.74,1.05-2.14,1.7-4.19,1.93l-14.44,1.65
		c-5.05,0.58-8.29,0.72-9.7,0.43c-1.42-0.29-2.21-0.65-2.36-1.08c-0.03-0.31,0.06-0.92,0.26-1.82c0.21-0.9,0.4-2.08,0.58-3.52
		c0.18-1.44,0.32-3.05,0.41-4.84c0.08-1.79,0.06-3.28-0.07-4.48c-0.13-1.37-0.29-2.54-0.51-3.52c-0.22-0.98-0.43-1.77-0.63-2.37
		l-8.51,10.88c0.45,1.26,0.83,3.24,1.15,5.94c0.29,2.6,0.2,4.23-0.27,4.91c-0.55,1.18-4.93,2.18-13.08,3l-0.02-0.13l-2.24,0.34
		c-0.22,0.02-0.41,0.04-0.63,0.06l0,0.04l-0.24,0.04c-0.19-1.5-0.42-3.13-0.7-4.9c-1.09-7.27-2.82-13.24-5.2-17.92l-8.56,11.85
		c2.12,2.49,3.91,6.32,5.36,11.48c0.1,0.64-0.25,1.29-1.04,1.93c-0.79,0.64-2.32,1.21-4.61,1.7c-5.91,0.91-11.27,0.11-16.06-2.38
		c1.28-4.33,1.92-7.71,1.91-10.12c-0.01-2.41-0.14-4.49-0.41-6.22c-0.13-0.81-0.38-1.66-0.75-2.54l-8.89,12.79
		c0.39,0.49,0.73,1.8,1.02,3.91c0.22,2.5,0.01,4.22-0.61,5.15c-0.7,1.08-2.07,1.78-4.11,2.09l-14.37,2.2
		c-5.02,0.77-8.25,1.04-9.68,0.81s-2.22-0.56-2.39-0.99c-0.05-0.31,0.02-0.91,0.19-1.83c0.17-0.91,0.33-2.09,0.45-3.53
		s0.19-3.07,0.22-4.86c0.02-1.8-0.06-3.28-0.24-4.47c-0.17-1.36-0.39-2.53-0.64-3.5c-0.25-0.97-0.49-1.75-0.72-2.34l-8.09,11.2
		c0.51,1.25,0.96,3.21,1.38,5.89c0.4,2.58,0.37,4.22-0.08,4.91c-0.56,1.34-15.77,4.27-15.77,4.27l-22.1,3.88l-21.48,3.96l0-0.02
		l-24.48,4.71L2203.6,506c-2.71,0.61-4.54-1.09-5.46-5.11l-8.29-39.02l-7.1,10.73l2.28,7.47l-4.84,2.29
		c-7.89,3.71-12.42,7.99-13.6,12.84c-2.25,11.4-3.26,17.66-3.03,18.77c0.4,1.85,2.02,3.07,4.88,3.65
		c8.77,1.58,14.17,2.15,16.23,1.72l1.91-0.67l6.14-13.27c0.88,0.48,1.45,1.33,1.7,2.54c1.88,6.03,3.94,10.27,6.18,12.71
		c1.57,1.46,4.14,1.81,7.7,1.05l26.75-5.34l22.05-4.24l0,0l23.37-4.3l24.95-4.71c4.69-0.72,8.75-2.66,12.19-5.83
		c4.77,2.08,11.56,2.45,20.35,1.1c6.69-1.03,10.84-2.06,12.45-3.11c3.72-2.06,6.42-3.8,8.12-5.21c4.68,0.78,9.48,1.34,14.41,1.67
		c4.94,0.34,8.8,0.27,11.58-0.19c2.58-0.36,5.26-1.24,8.04-2.64l1.15,0.66l1.83-0.28l1.98-0.22c4.71-0.54,8.84-2.33,12.41-5.36
		c4.68,2.26,11.45,2.89,20.29,1.88c6.73-0.77,10.91-1.65,12.57-2.63c3.79-1.92,6.53-3.77,8.23-5.56l0.01,0.05
		c0.01,0.07,0.21,0.15,0.6,0.24c2.27,0.74,5.43,1.53,9.5,2.37s9.37,1.03,15.89,0.59c1.94-0.22,3.76-0.54,5.46-0.96
		C2484.17,479.27,2485.27,478.53,2485.77,477.47z M2187.73,503.2c-2.25,0.48-4.55,0.46-6.89-0.06c-2.34-0.52-6.18-1.59-11.51-3.2
		c3.26-5.36,9-10.29,17.26-14.78c0.42,0.19,2.05,5.2,4.88,15.03C2191.93,501.58,2190.68,502.58,2187.73,503.2z"/>
	<path d="M2502.5,422.32c1.66,0.59,2.72,0.87,3.17,0.84c-0.26,0.26-0.92,1.52-1.98,3.77c-1.24,2.68-1.82,4.52-1.75,5.51
		c0.05,0.62,0.34,0.85,0.88,0.71c-0.1,0.01,1.15-1.16,3.76-3.5c2.93-2.64,5.68-4.7,8.26-6.17c1.72-0.92,4.14-1.9,7.26-2.94l0.77-7.5
		l-7.59,2.76c-1.04,0.35-2.18,0.58-3.41,0.67c-4.11,0.32-6.68-0.34-7.7-1.99c-0.08-0.17-0.13-0.39-0.15-0.66
		c-0.08-0.96,0.36-2.19,1.32-3.69c0.95-1.5,1.8-2.33,2.55-2.5c0.74-0.16,1.57-0.27,2.46-0.34c3.49-0.27,5.61-0.07,6.35,0.59
		l2.12-7.4c-0.17,0.01-1.21-0.22-3.1-0.69c-1.37-0.34-2.55-0.47-3.55-0.4c-3.28,0.25-6.4,2.85-9.35,7.78
		c-2.94,4.93-4.08,9.3-3.4,13.11C2499.51,420.97,2500.55,421.64,2502.5,422.32z"/>
	<path d="M2602.72,443.55c-2.18-6.58-4.12-10.87-5.79-12.9c-1.67-2.02-3.66-2.98-5.96-2.88c-3.57,0.16-6.85,1.89-9.85,5.19
		s-5.73,7.89-8.18,13.78c-1.73,3.62-3.13,6.47-4.21,8.54c-0.39,1.13-21.6,2.77-21.6,2.77c-0.99-6.13-3.36-12.3-7.12-18.52
		c-4.43-7.45-8.93-10.99-13.48-10.64c-3.94,0.3-7.75,4.03-11.44,11.17c-3.83,8.33-5.37,17.44-4.61,27.34
		c0.25,3.25,3.44,5.64,9.55,7.17c6.12,1.52,11.78,2.09,16.98,1.68c0.31-0.02,0.63-0.06,0.95-0.1c0.33-0.04,0.68-0.1,1.05-0.16
		c-1.49,4.42-3.48,8.2-5.98,11.34c-2.49,3.14-6.51,6.22-12.05,9.25c-5.54,3.03-10.1,4.7-13.69,5.01c-3.4,0.23-7.46-0.13-12.18-1.08
		c-4.67-1.09-8.45-2.53-11.34-4.34c2.26,4.3,4.66,7.45,7.19,9.42s5.66,4.06,9.37,6.25c6.54,3.49,12.04,5.07,16.49,4.72
		c9.49-0.73,17.41-7.72,23.76-20.96c3.58-6.72,5.83-13.79,6.74-21.2l0.86-0.07v0l7.77-0.35c6-0.27,9.71-2.94,11.1-8.03
		c3.3,2.33,6.89,4.07,10.76,5.22c3.87,1.15,8.06,1.62,12.59,1.42c10.88-0.49,16.12-5.36,15.7-14.63
		C2606.03,454.94,2604.9,450.12,2602.72,443.55z M2534.39,460.48c-1.48,0.11-4.62-0.24-9.44-1.05c-4.82-0.81-7.29-2.06-7.42-3.74
		c-0.06-0.86,0.03-1.8,0.3-2.81c0.26-1.02,0.67-1.97,1.2-2.84c0.54-0.87,1.15-1.59,1.85-2.16c0.7-0.57,1.42-0.89,2.17-0.94
		c1.41-0.11,2.92,0.19,4.52,0.92c1.61,0.72,3.57,2.41,5.87,5.08c2.31,2.66,3.53,4.64,3.67,5.95
		C2537.18,459.8,2536.28,460.34,2534.39,460.48z M2593.53,457.42c-0.61,0.03-2.31-0.04-5.09-0.21s-5.46-0.66-8.04-1.47
		c-2.58-0.81-4.2-1.5-4.84-2.06c-0.64-0.55-0.97-1.05-1-1.5c-0.04-0.93,0.69-2.26,2.19-4.02c1.51-1.75,3.01-3.04,4.5-3.86
		c1.49-0.82,2.63-1.26,3.42-1.29c3.12-0.14,5.61,1.43,7.46,4.7c1.84,3.27,2.82,6.02,2.92,8.25
		C2595.11,456.89,2594.6,457.37,2593.53,457.42z"/>
</g>
<path class="st0" d="M2722.06,623.35c-149.17,84.14-339.09,211.89-408.49,347.83c-41.48,81.25-21.04,129.53-16.52,138.39
	c6.2,12.15,1.43,27.18-10.63,33.5l-1423.5,746.02c272.85-32.98,621.8-133.93,977.56-284.09
	c347.29-146.59,657.74-321.77,874.15-493.28c206.63-163.76,304.33-306.99,268.04-392.95
	C2957.73,659.69,2865.27,625.88,2722.06,623.35z"/>
<path class="st0" d="M753.49,1354.17c-173.51,125.8-289.08,243.43-332.7,337.44L2434.6,648.58
	c-257.66,43.06-572.08,138.85-883.69,270.37C1246.67,1047.37,963.48,1201.93,753.49,1354.17z"/>
<path id="Path_3_" class="st0" d="M3022.05,702.15c-30.56-72.4-124.21-113.76-271.99-120.67l49.33-90.36
	c1.4-2.56-0.62-5.33-3.14-5.33c-0.54,0-1.11,0.13-1.67,0.42l-189.61,98.21c-284.69,21.26-675.09,128.18-1070.7,295.16
	c-350.75,148.05-664.72,325.32-884.08,499.16c-107.68,85.34-187.03,165.53-235.84,238.34c-31.78,47.41-49.92,90.92-54.56,130.2
	c-0.99,8.41-1.36,16.63-1.1,24.64L2752.75,531.95l-19.93,36.51c-7.36,4.02-14.59,8.03-21.74,12.02
	c-13.13,7.33-25.83,14.59-38.25,21.8c-449.78,261.32-441.01,447.83-420.55,510.42L667.34,1943.32c6.53,0.12,13.13,0.21,19.85,0.21
	c8.66,0,17.47-0.11,26.4-0.31c288.63-6.48,713.03-117.13,1143.51-298.83c350.75-148.05,664.72-325.32,884.08-499.16
	c107.68-85.34,187.03-165.53,235.84-238.34C3030.54,827.05,3045.69,758.17,3022.05,702.15z M383.51,1734.99
	c44.85-216.28,521.95-566.8,1159.08-835.73c380.91-160.78,742.78-260.18,1012.09-288.8L383.51,1734.99z M1848.79,1624.7
	c-419.45,177.04-815.8,279.67-1090.88,295.3l1518.59-795.85c1.76-0.92,2.42-3.08,1.51-4.85c-13.62-26.69-88.52-221.71,438.61-517.4
	c152.65,1.8,255.52,36.99,285.73,108.57C3086.91,910.78,2570.44,1320.1,1848.79,1624.7z"/>
<path id="Star_1_" class="st1" d="M2939.34,461.21l-62.97,41.47c-0.85,0.56-2,0.31-2.54-0.55l-19.57-31.3
	c-0.35-0.55-0.96-0.88-1.62-0.85l-81.64,3.4c-2.02,0.08-2.65-2.69-0.79-3.49l76.55-32.72c0.56-0.24,0.96-0.74,1.07-1.33l7.11-37.66
	c0.18-0.96,1.08-1.6,2.05-1.46l72.5,10.6c0.26,0.04,0.53,0.02,0.78-0.06l90.6-26.79c1.77-0.52,3.1,1.62,1.85,2.98l-34.22,37
	c-0.85,0.92-0.54,2.41,0.62,2.9l44.42,19.06c1.67,0.72,1.37,3.17-0.43,3.46l-93.07,15.06
	C2939.79,460.97,2939.55,461.07,2939.34,461.21z"/>
</svg>
